<?xml version="1.0" encoding="UTF-8" standalone="no"?>
<svg
   version="1.1"
   viewBox="-74.431 -275.42 140 160"
   width="1000"
   height="1143"
   id="svg301"
   xmlns:info="https://www.gruese.de/sarna/info-ns"
   xmlns:xlink="http://www.w3.org/1999/xlink"
   xmlns="http://www.w3.org/2000/svg"
   xmlns:svg="http://www.w3.org/2000/svg"
   xmlns:rdf="http://www.w3.org/1999/02/22-rdf-syntax-ns#">
  <metadata
     id="metadata1">
    <rdf:RDF>
      <rdf:description
         rdf:about="">
        <info:title>Tukayyid system and interstellar neighborhood, Year 3052 (End of Operation Revival)</info:title>
        <info:version>1.4</info:version>
        <info:created>2021-08-29T21:43:24.334Z</info:created>
      </rdf:description>
    </rdf:RDF>
  </metadata>
  <defs
     id="defs15">
    <filter
       id="sLblShd"
       x="-0.080215422"
       y="-0.22088305"
       width="1.1604308"
       height="1.4417661">
      <feFlood
         flood-color="white"
         result="flood"
         id="feFlood1" />
      <feOffset
         dx="-0.16"
         dy="-0.16"
         in="SourceAlpha"
         result="offset1"
         id="feOffset1" />
      <feComposite
         operator="in"
         in="flood"
         in2="offset1"
         result="shadow1"
         id="feComposite1" />
      <feOffset
         dx="-0.16"
         dy="0.16"
         in="SourceAlpha"
         result="offset2"
         id="feOffset2" />
      <feComposite
         operator="in"
         in="flood"
         in2="offset2"
         result="shadow2"
         id="feComposite2" />
      <feOffset
         dx="0.16"
         dy="-0.16"
         in="SourceAlpha"
         result="offset3"
         id="feOffset3" />
      <feComposite
         operator="in"
         in="flood"
         in2="offset3"
         result="shadow3"
         id="feComposite3" />
      <feOffset
         dx="0.16"
         dy="0.16"
         in="SourceAlpha"
         result="offset4"
         id="feOffset4" />
      <feComposite
         operator="in"
         in="flood"
         in2="offset4"
         result="shadow4"
         id="feComposite4" />
      <feMerge
         id="feMerge8">
        <feMergeNode
           in="shadow1"
           id="feMergeNode4" />
        <feMergeNode
           in="shadow2"
           id="feMergeNode5" />
        <feMergeNode
           in="shadow3"
           id="feMergeNode6" />
        <feMergeNode
           in="shadow4"
           id="feMergeNode7" />
        <feMergeNode
           in="SourceGraphic"
           id="feMergeNode8" />
      </feMerge>
    </filter>
    <path
       id="label-path-FCL_0_18"
       d="m -32.08,-154.64 31.77,1.11" />
    <path
       id="label-path-FCL_0_40"
       d="m -39.26,-185.19 2.71,-20.94" />
    <path
       id="label-path-FCL_0_62"
       d="m -24.41,-120.81 9.94,-18.45" />
    <path
       id="label-path-DC_0_87"
       d="m -11.99,-160.94 8.81,-0.7" />
    <path
       id="label-path-DC_0_43"
       d="m -19.13,-116.18 7.47,-4.9" />
    <path
       id="label-path-DC_0_114"
       d="m 14.82,-190.04 5.79,-6.8" />
    <path
       id="label-path-FR_0_62"
       d="m -12.57,-175.01 16.82,-3.68" />
    <path
       id="label-path-FR_0_35"
       d="m -34.31,-196.77 16.11,7.46" />
    <path
       id="label-path-CGB_0_69"
       d="m 34.43,-263.63 3.23,-10.49" />
    <path
       id="label-path-CGB_0_45"
       d="m 23.66,-221.65 3.49,10.35" />
    <path
       id="label-path-CGB_1_1"
       d="m 58.63,-235.9 3.44,-10.68" />
    <path
       id="label-path-CWF_0_59"
       d="m -39.57,-242.03 4.82,0.74" />
    <path
       id="label-path-CWF_1_107"
       d="m 13.09,-211.69 4.98,0.35" />
    <path
       id="label-path-CWF_1_55"
       d="m 24.08,-261.51 0.33,4.72" />
    <path
       id="label-path-CSV_0_13"
       d="m -34.59,-219.78 13.44,-2.21" />
    <path
       id="label-path-CSV_1_9"
       d="m -72.92,-251.78 10.04,-1.02" />
    <path
       id="label-path-CSV_2_2"
       d="m -64.43,-272.47 7.47,6.94" />
    <path
       id="label-path-CJF_0_17"
       d="m -36.41,-234.19 11.29,-1.69" />
    <path
       id="label-path-CJF_1_33"
       d="m -61.87,-242.68 10.07,0.69" />
    <path
       id="label-path-C_0_16"
       d="m -56.86,-231.33 6.08,1.17" />
    <clipPath
       id="minimapClip">
      <rect
         x="-604.43103"
         y="-510.42001"
         width="1200"
         height="600"
         id="rect15" />
    </clipPath>
    <filter
       style="color-interpolation-filters:sRGB"
       id="filter432"
       x="-0.0089285714"
       y="-0.0053763441"
       width="1.0178571"
       height="1.0113873">
      <feColorMatrix
         values="1 0 0 0 0 0 1 0 0 0 0 0 1 0 0 0 0 0 5 -1 "
         result="colormatrix"
         id="feColorMatrix432" />
      <feComposite
         in2="colormatrix"
         operator="arithmetic"
         k2="0.0474777"
         result="composite"
         id="feComposite432"
         k1="0"
         k3="0"
         k4="0" />
    </filter>
    <filter
       style="color-interpolation-filters:sRGB"
       id="filter433"
       x="0"
       y="0"
       width="1"
       height="1">
      <feColorMatrix
         values="1 0 0 0 0 0 1 0 0 0 0 0 1 0 0 0 0 0 5 -1 "
         result="colormatrix"
         id="feColorMatrix433" />
      <feComposite
         in2="colormatrix"
         operator="arithmetic"
         k2="0.0474777"
         result="composite"
         id="feComposite433"
         k1="0"
         k3="0"
         k4="0" />
    </filter>
    <filter
       style="color-interpolation-filters:sRGB"
       id="filter434"
       x="0.22707576"
       y="0.039675533"
       width="0.75163151"
       height="0.85531398">
      <feColorMatrix
         values="1 0 0 0 0 0 1 0 0 0 0 0 1 0 0 0 0 0 5 -1 "
         result="colormatrix"
         id="feColorMatrix434" />
      <feComposite
         in2="colormatrix"
         operator="arithmetic"
         k2="0.0474777"
         result="composite"
         id="feComposite434"
         k1="0"
         k3="0"
         k4="0" />
    </filter>
    <filter
       style="color-interpolation-filters:sRGB"
       id="filter435"
       x="-0.0046402526"
       y="-0.0026224824"
       width="1.0116177"
       height="1.005946">
      <feColorMatrix
         values="1 0 0 0 0 0 1 0 0 0 0 0 1 0 0 0 0 0 5 -1 "
         result="colormatrix"
         id="feColorMatrix435" />
      <feComposite
         in2="colormatrix"
         operator="arithmetic"
         k2="0.0474777"
         result="composite"
         id="feComposite435"
         k1="0"
         k3="0"
         k4="0" />
    </filter>
    <filter
       style="color-interpolation-filters:sRGB"
       id="filter436"
       x="-0.00089267224"
       y="-0.00079295102"
       width="1.0017853"
       height="1.0015859">
      <feColorMatrix
         values="1 0 0 0 0 0 1 0 0 0 0 0 1 0 0 0 0 0 5 -1 "
         result="colormatrix"
         id="feColorMatrix436" />
      <feComposite
         in2="colormatrix"
         operator="arithmetic"
         k2="0.0474777"
         result="composite"
         id="feComposite436"
         k1="0"
         k3="0"
         k4="0" />
    </filter>
    <filter
       style="color-interpolation-filters:sRGB"
       id="filter437"
       x="-0.0010416667"
       y="-0.0010416667"
       width="1.0020833"
       height="1.0020833">
      <feColorMatrix
         values="1 0 0 0 0 0 1 0 0 0 0 0 1 0 0 0 0 0 5 -1 "
         result="colormatrix"
         id="feColorMatrix437" />
      <feComposite
         in2="colormatrix"
         operator="arithmetic"
         k2="0.0474777"
         result="composite"
         id="feComposite437"
         k1="0"
         k3="0"
         k4="0" />
    </filter>
    <filter
       style="color-interpolation-filters:sRGB"
       id="filter438"
       x="0"
       y="0"
       width="1"
       height="1">
      <feColorMatrix
         values="1 0 0 0 0 0 1 0 0 0 0 0 1 0 0 0 0 0 5 -1 "
         result="colormatrix"
         id="feColorMatrix438" />
      <feComposite
         in2="colormatrix"
         operator="arithmetic"
         k2="0.0474777"
         result="composite"
         id="feComposite438"
         k1="0"
         k3="0"
         k4="0" />
    </filter>
    <filter
       style="color-interpolation-filters:sRGB"
       id="filter439"
       x="-0.0023825526"
       y="-0.0021942667"
       width="1.0047668"
       height="1.0043885">
      <feColorMatrix
         values="1 0 0 0 0 0 1 0 0 0 0 0 1 0 0 0 0 0 5 -1 "
         result="colormatrix"
         id="feColorMatrix439" />
      <feComposite
         in2="colormatrix"
         operator="arithmetic"
         k2="0.0474777"
         result="composite"
         id="feComposite439"
         k1="0"
         k3="0"
         k4="0" />
    </filter>
  </defs>
  <style
     id="style15">
		text { fill: #000; font-family: Tahoma, Arial, sans-serif; font-size: 2.75px; text-rendering: optimizeLegibility; }
		g.systems .system { fill: #000; stroke: #000; stroke-width: .25; } /* default color */
		g.systems .system-decoration { fill: none; stroke: #000; stroke-width: .25; }
		g.systems .system.U { stroke: #777; }
		/*g.systems .system.undiscovered { stroke: #555; }*/
		g.clusters .cluster { fill: #000; stroke: #000; stroke-width: .25; } /* default color */
		g.jump-radius-rings circle { fill: none; stroke: rgb(80,80,80); stroke-opacity:.5; stroke-width: .25 }
		g.nebulae ellipse { fill: rgb(0, 0, 0); fill-opacity: 0.1; stroke: rgb(0, 0, 0); stroke-opacity: .3; stroke-width: .25 }
		g.nebulae path { fill: url(#nebula-fill); stroke: rgb(0, 0, 0); stroke-opacity: .5; stroke-width: .25 }
		text.nebulae-label { font-size: 2.5px; fill: #999; }
		text.nebulae-label.large { font-size: 4px; fill: #999; }
		text.system-label { font-size: 2.5px }
		text.system-label.abandoned { fill: #555; font-style: italic; }
		text.system-label.undiscovered { fill: #555; font-style: italic; }
		text.system-label tspan.sup { font-size: 1.5px; }
		text.system-label.additions { fill: #666; font-size: 1.5px; }
		text.system-label.additions tspan.apocryphal { fill: #c00; }
		text.system-label.apocryphal tspan.sup { fill: #c00 }
		g.border-labels text { alignment-baseline: middle; font-size: 2px; font-style: italic; font-weight: bold; text-rendering: geometricPrecision; }
		path.label-connector { fill: none; stroke: #000; stroke-width: 0.25; }
		.minimap-outer text { font-size: 60px; }
		.minimap-outer text .smaller { font-size: 45px; }
		.minimap-outer path.nebula { fill: rgb(0, 0, 0); fill-opacity: .075; stroke: rgb(0, 0, 0); stroke-opacity: .5; stroke-width: .25; }
		path { stroke-linejoin: round; stroke-linecap: round; }
		.scale rect.black { stroke-width: 0; fill: #000; }
		.scale rect.white { stroke-width: 0; fill: #fff; }
		.scale rect.frame { stroke: #000; stroke-width: 0.4375; fill: none; }
		path.logo { fill: #000; fill-rule: evenodd; stroke: none; }
		.scale text { text-shadow: #fff 0.35em 0.35em,#fff -0.35em 0.35em,#fff 0.35em -0.35em,#fff -0.35em -0.35em; }
g.logo .ribbon { fill:#ffc103; stroke:#000; stroke-width: 0.5px; stroke-linecap: butt; stroke-linejoin:miter; }
g.logo .atlas-silhouette { fill: #000; fill-rule:evenodd; stroke: none; }
g.logo .text { fill: #000; stroke: none; }
g.logo .atlas-highlights { fill: #ddd; stroke: none; }


		/* IE10+ specific styles */
		@media all and (-ms-high-contrast: none), (-ms-high-contrast: active) {
			text.system-label,
			text.nebulae-label,
			.minimap-outer text,
			.scale text { filter: url('#sLblShd') }
		}

		/* IE Edge specific styles */
		@supports (-ms-ime-align:auto) {
			text.system-label,
			text.nebulae-label,
			.minimap-outer text,
			.scale text { filter: url('#sLblShd') }
		}
		@supports (-ms-accelerator:true) {
			text.system-label,
			text.nebulae-label,
			.minimap-outer text,
			.scale text { filter: url('#sLblShd') }
		}
	</style>
  <g
     class="borders"
     id="g25"
     style="filter:url(#filter439)">
    <path
       fill-rule="evenodd"
       class="border FCL"
       style="fill:#1861a3;fill-opacity:0.3;stroke:#1861a3;stroke-width:1px"
       d="m 1.88,-100.42 h -91.31 l -8.49,-163.33 c 4.31,1.18 11.6,-9.27 14.31,-7.96 2.52,1.23 -1.94,11.25 0.64,15.22 0,0 15.84,10.18 15.84,10.18 0,0 -0.01,0.47 -0.01,0.47 0,0 6.82,7.2 6.82,7.2 0,0 1.99,8.9 1.99,8.9 0,0 17.59,3.26 17.59,3.26 0,0 1.02,2.08 1.02,2.08 0,0 -0.12,0.93 -0.12,0.93 1.29,2.75 1.87,6.02 4.18,7.74 0,0 12.24,4.52 12.24,4.52 0,0 -0.35,4.84 -0.35,4.84 -3.56,3.74 -13.88,6.27 -12.93,9.13 1.34,3.99 12.78,7.04 19.46,10.46 0.14,0.07 0.17,-0.53 0.02,-0.47 -4.68,1.67 -11.79,2.43 -13.82,5.4 -1.31,1.9 4.3,5.98 4.25,8.53 -0.02,1.4 -3.8,1.25 -4.44,2.74 -1,2.32 -2.17,7.19 -0.23,8.13 0,0 18.03,0.57 18.03,0.57 0,0 0.6,2.34 0.6,2.34 0.12,0.36 0.24,0.73 0.54,0.93 1.13,0.75 2.33,2.28 3.56,1.79 8.33,-3.36 19.97,-13.38 23.74,-12.81 2.34,0.36 -2.51,12.2 -6.28,15.47 -2.88,2.5 -10.54,-1.22 -12.72,1.03 -1.88,1.94 2.72,8.31 1.12,10.95 -1.63,2.68 -8.42,1.64 -10.35,4.26 -1.7,2.31 1.21,6.99 -0.03,9.82 -1.03,2.34 -4.08,3.41 -6.45,4.94 -0.91,0.59 -2.77,0.17 -2.92,1.14 -0.68,4.49 1.59,10.03 0.56,14.47 -0.41,1.74 -2.86,3.34 -4.67,3.18 -4.92,-0.46 -9.5,-3.63 -14.57,-4.97 -0.51,-0.14 -1.53,0.25 -1.39,0.73 1.27,4.34 4.75,8.7 5.41,13.05 0.2,1.36 -2.68,1.85 -2.94,3.28 l 34.75,-8.14"
       id="path16" />
    <path
       fill-rule="evenodd"
       class="border CSJ"
       style="fill:#2f2e30;fill-opacity:0.3;stroke:#2f2e30;stroke-width:1px"
       d="m 68.76,-228.59 c 0,0 -7.03,-10.45 -7.03,-10.45 0,0 15.92,-13.3 15.92,-13.3 0,0 1.69,18.24 1.69,18.24 0,0 0.05,-0.08 0.05,-0.08 0,0 -10.63,5.59 -10.63,5.59"
       id="path17" />
    <path
       fill-rule="evenodd"
       class="border CNC"
       style="fill:#381715;fill-opacity:0.3;stroke:#381715;stroke-width:1px"
       d="m 78.35,-252.75 c 0,0 1.44,-4.83 1.44,-4.83 0.07,-0.17 0.43,-0.07 0.49,-0.25 3.29,-10.11 5.22,-19.47 9.08,-29.14 0,0 3.36,-2.04 3.36,-2.04 l 3.26,49.23 c 0,0 -15.89,5.32 -15.89,5.32 0,0 -1.74,-18.29 -1.74,-18.29"
       id="path18" />
    <path
       fill-rule="evenodd"
       class="border FR"
       style="fill:#4e7aac;fill-opacity:0.3;stroke:#4e7aac;stroke-width:1px"
       d="m -30.63,-162.97 c -1.74,-0.76 -0.69,-5.11 0.27,-7.11 0.72,-1.53 4.5,-1.51 4.54,-2.98 0.06,-2.56 -5.57,-6.64 -4.27,-8.53 2,-2.88 9.08,-3.17 13.69,-5.09 0.19,-0.08 0.2,-0.51 0.02,-0.61 -6.57,-3.6 -17.98,-6.16 -19.32,-9.96 -0.94,-2.7 9.39,-4.99 12.8,-8.63 0,0 0.37,-5.42 0.37,-5.42 0,0 3.77,-4.83 3.77,-4.83 0,0 8.36,2.8 8.36,2.8 2.27,-0.07 3.96,-3.37 6.24,-3.28 3.93,0.16 7.66,2.35 11.51,3.98 0.52,0.22 0.46,1.1 0.97,1.32 0,0 9.17,3.06 9.17,3.06 0,0 0.1,0.15 0.1,0.15 0,0 0.99,3.7 0.99,3.7 -3.37,6.07 -9.59,10.54 -12.38,16.83 -1.15,2.58 3.05,7.09 1.14,8.5 -4.42,3.27 -12.84,2.74 -19.24,4.85 -0.67,0.23 -0.87,1.13 -0.96,1.83 0,0 -0.6,9.74 -0.6,9.74 0,0 -17.17,-0.32 -17.17,-0.32"
       id="path19" />
    <path
       fill-rule="evenodd"
       class="border C"
       style="fill:#757c82;fill-opacity:0.3;stroke:#757c82;stroke-width:1px"
       d="m -39.32,-239.14 c 0,0 -1.48,11.91 -1.48,11.91 0,0 -16.84,-3.23 -16.84,-3.23 0,0 -1.76,-8.29 -1.76,-8.29 0,0 17.51,-3.51 17.51,-3.51 0,0 2.57,3.12 2.57,3.12"
       id="path20" />
    <path
       fill-rule="evenodd"
       class="border CSV"
       style="fill:#a3d451;fill-opacity:0.3;stroke:#a3d451;stroke-width:1px"
       d="m -35,-216.48 c -2.15,-1.6 -2.58,-4.64 -3.86,-7.17 0,0 -0.01,-0.49 -0.01,-0.49 0,0 18.81,-3.1 18.81,-3.1 0,0 0.68,10.48 0.68,10.48 0,0 -3.75,4.8 -3.75,4.8 0,0 -11.87,-4.52 -11.87,-4.52 m -12.59,-42.77 c 0,0 -16.88,8.27 -16.88,8.27 0,0 -2.56,4.06 -2.56,4.06 0,0 -15.08,-10.07 -15.08,-10.07 -2.6,-4.15 1.65,-14.27 -1,-15.59 -2.82,-1.39 -10.24,8.98 -14.63,7.85 -5.18,-1.34 -8.94,-9.46 -12.72,-14.92 l 15.23,-4.37 c 5.06,1.52 8.07,8.52 12.97,9.43 4.35,0.81 8.82,-2.82 13.48,-4.49 0,0 0.51,-0.53 0.51,-0.53 0,0 11.89,5.71 11.89,5.71 0,0 8.79,14.65 8.79,14.65"
       id="path21" />
    <path
       fill-rule="evenodd"
       class="border CJF"
       style="fill:#abd375;fill-opacity:0.3;stroke:#abd375;stroke-width:1px"
       d="m -39,-224.93 c 0,0 -0.95,-2.03 -0.95,-2.03 0,0 1.46,-11.97 1.46,-11.97 0,0 12.72,-1.91 12.72,-1.91 3.39,2.07 3.7,8.69 5.7,13.12 0,0 0.13,-0.23 0.13,-0.23 0,0 -19.06,3.02 -19.06,3.02 m -27.22,-21.29 c 0,0 0.01,-0.21 0.01,-0.21 0,0 2.41,-3.81 2.41,-3.81 0,0 16.75,-8.39 16.75,-8.39 0,0 0.94,0.26 0.94,0.26 1.21,1.12 2.81,2.02 3.22,3.58 0,0 0.76,11.75 0.76,11.75 0,0 -17.6,3.69 -17.6,3.69 0,0 -6.49,-6.87 -6.49,-6.87 m -2.55,-34.12 c 0,0 0.02,-0.03 0.02,-0.03 0,0 -0.52,0.41 -0.52,0.41 -4.46,1.6 -8.7,5.19 -12.83,4.38 -4.86,-0.94 -7.83,-7.94 -12.85,-9.4 0,0 -15.65,1.13 -15.65,1.13 l 21.17,-6.57 34.7,-5.08 c -2.64,5.99 -9.14,9.87 -14.04,15.16"
       id="path22" />
    <path
       fill-rule="evenodd"
       class="border CGB"
       style="fill:#bae6fb;fill-opacity:0.3;stroke:#bae6fb;stroke-width:1px"
       d="m 36.85,-217.92 c -3.03,0.6 -5.1,4.73 -8.32,6.3 0,0 -10.32,2.83 -10.32,2.83 0,0 0.07,0.05 0.07,0.05 0,0 6.13,-17.41 6.13,-17.41 -0.18,-2.8 -7,-3.21 -7.61,-5.91 -0.76,-3.34 1.67,-8.35 3.69,-11.36 0.69,-1.02 3.06,0.67 4.05,-0.17 2.36,-2.03 4.98,-4.79 5.53,-8.02 1.23,-7.32 -1.53,-15.04 -0.46,-22.1 0.24,-1.58 3.3,-1.26 4.19,-2.59 1.09,-1.62 0.59,-3.98 1.48,-5.85 0.96,-2.03 3.87,-3.15 3.82,-5.29 -0.16,-6.92 -7.69,-15.85 -4.4,-20.62 4.62,-6.68 17.81,-7.64 27,-12.08 l 18.87,29.72 8.01,2.82 c -3.96,9.56 -5.78,19.03 -9.06,29.13 -0.06,0.18 -0.43,0.08 -0.5,0.25 0,0 -1.58,5.15 -1.58,5.15 0,0 -16.7,13.89 -16.7,13.89 0,0 7.4,11.15 7.4,11.15 0,0 0.1,-0.28 0.1,-0.28 -4.61,1.25 -9.07,2.21 -13.56,3.94 -0.64,0.24 -0.48,1.45 -1.11,1.68 -1.98,0.74 -4.72,-0.16 -6.33,1.09 -2.05,1.6 -2.68,4.59 -4.14,7.05 -0.02,0.03 -0.05,0.06 -0.08,0.05 -2.16,-1.17 -4.13,-3.83 -6.17,-3.42"
       id="path23" />
    <path
       fill-rule="evenodd"
       class="border CWF"
       style="fill:#d9743d;fill-opacity:0.3;stroke:#d9743d;stroke-width:1px"
       d="m -18.51,-216.92 c 0,0 -0.66,-10.5 -0.66,-10.5 0,0 0.1,-0.25 0.1,-0.25 -2.11,-4.91 -2.57,-11.79 -6.22,-14.04 0,0 -13.37,1.96 -13.37,1.96 0,0 -2.61,-3.17 -2.61,-3.17 0,0 -0.7,-12.26 -0.7,-12.26 -0.46,-1.75 -2.25,-2.81 -3.62,-4.04 0,0 -1.21,-0.3 -1.21,-0.3 0,0 -8.91,-15.12 -8.91,-15.12 0,0 -12.17,-5.68 -12.17,-5.68 0,0 -0.01,0.45 -0.01,0.45 4.83,-5.1 11.51,-9.27 14.11,-15.34 1.62,-3.77 -0.99,-8.43 -2.06,-12.76 l 89.65,-0.54 c -3.33,4.84 4.16,13.86 4.31,20.86 0.04,2.07 -2.81,3.12 -3.74,5.07 -0.87,1.82 -0.33,4.12 -1.39,5.7 -0.91,1.35 -4.01,1.08 -4.26,2.69 -1.11,7.13 1.55,14.88 0.38,22.3 -0.47,2.98 -2.86,5.59 -5.06,7.42 -1.03,0.86 -3.47,-0.82 -4.17,0.25 -2.18,3.38 -4.76,8.76 -4.04,12.46 0.53,2.72 7.39,3.1 7.61,5.89 0,0 -5.89,16.76 -5.89,16.76 0,0 -8.65,-3.01 -8.65,-3.01 -0.51,-0.23 -0.45,-1.1 -0.97,-1.32 -4.08,-1.7 -8.01,-3.96 -12.18,-4.16 -2.28,-0.11 -3.97,3.17 -6.24,3.28 0,0 -8.03,-2.6 -8.03,-2.6"
       id="path24" />
    <path
       fill-rule="evenodd"
       class="border DC"
       style="fill:#ec2027;fill-opacity:0.3;stroke:#ec2027;stroke-width:1px"
       d="m 4.19,-100.42 -40.48,5.02 c -0.66,-4.29 -3.8,-8.47 -5.47,-12.84 -0.06,-0.16 0.34,-0.16 0.51,-0.1 5.14,1.64 9.73,4.65 14.66,4.96 2.09,0.13 4.89,-1.73 5.42,-3.72 1.15,-4.34 -1.2,-9.88 -0.62,-14.36 0.11,-0.84 1.79,-0.31 2.57,-0.82 2.52,-1.66 5.73,-2.88 6.87,-5.38 1.25,-2.78 -1.72,-7.43 -0.04,-9.7 1.94,-2.63 8.74,-1.62 10.38,-4.31 1.58,-2.62 -3.03,-8.94 -1.19,-10.84 2.12,-2.19 9.82,1.71 12.52,-0.84 3.92,-3.69 8.9,-16.37 6.39,-17 -3.81,-0.94 -15.89,9.08 -24.44,12.53 -1.01,0.4 -1.94,-0.9 -2.86,-1.51 -0.2,-0.13 -0.24,-0.37 -0.32,-0.6 0,0 -0.71,-2.4 -0.71,-2.4 0,0 0.72,-9.79 0.72,-9.79 0.06,-0.5 0.15,-1.16 0.63,-1.32 6.54,-2.08 14.96,-1.69 19.44,-5.06 1.97,-1.49 -2.19,-6.14 -1,-8.82 2.8,-6.32 9.07,-10.79 12.4,-16.89 0,0 -1.09,-3.85 -1.09,-3.85 0,0 10.49,-2.66 10.49,-2.66 3.12,-1.49 5.05,-5.63 7.95,-6.21 1.99,-0.39 3.9,2.45 6.03,3.43 0.26,0.12 0.63,-0.04 0.79,-0.28 1.54,-2.31 2.04,-5.42 4.07,-7 1.6,-1.24 4.33,-0.33 6.31,-1.07 0.64,-0.24 0.5,-1.46 1.16,-1.72 4.53,-1.75 8.92,-2.57 13.66,-4.03 0,0 0.08,-0.19 0.08,-0.19 0,0 11.11,-5.72 11.11,-5.72 0,0 0.05,-0.15 0.05,-0.15 0,0 16.54,-5.45 16.54,-5.45 2.67,-2.39 0.1,-8.78 2.38,-11.52 L 80.57,-100.42 H 6.78"
       id="path25" />
  </g>
  <g
     class="border-labels"
     id="g62"
     style="filter:url(#filter438)">
    <text
       text-anchor="left"
       data-candidate-rating="0.885"
       style="fill:#1861a3"
       id="text25"><textPath
         xlink:href="#label-path-FCL_0_18"
         id="textPath25"><tspan
           x="0"
           dy="0"
           id="tspan25">Federated Commonwealth (LC)</tspan></textPath></text>
    <text
       text-anchor="left"
       data-candidate-rating="0.841"
       style="fill:#1861a3"
       id="text27"><textPath
         xlink:href="#label-path-FCL_0_40"
         id="textPath27"><tspan
           x="5.3499999"
           dy="-2"
           id="tspan26">Federated</tspan><tspan
           x="0"
           dy="2"
           id="tspan27">Commonwealth (LC)</tspan></textPath></text>
    <text
       text-anchor="left"
       data-candidate-rating="0.668"
       style="fill:#1861a3"
       id="text29"><textPath
         xlink:href="#label-path-FCL_0_62"
         id="textPath29"><tspan
           x="5.3499999"
           dy="-2"
           id="tspan28">Federated</tspan><tspan
           x="0"
           dy="2"
           id="tspan29">Commonwealth (LC)</tspan></textPath></text>
    <text
       text-anchor="left"
       data-candidate-rating="0.981"
       style="fill:#ec2027"
       id="text31"><textPath
         xlink:href="#label-path-DC_0_87"
         id="textPath31"><tspan
           x="0.02"
           dy="-2"
           id="tspan30">Draconis</tspan><tspan
           x="0"
           dy="2"
           id="tspan31">Combine</tspan></textPath></text>
    <text
       text-anchor="left"
       data-candidate-rating="0.946"
       style="fill:#ec2027"
       id="text33"><textPath
         xlink:href="#label-path-DC_0_43"
         id="textPath33"><tspan
           x="0.02"
           dy="-2"
           id="tspan32">Draconis</tspan><tspan
           x="0"
           dy="2"
           id="tspan33">Combine</tspan></textPath></text>
    <text
       text-anchor="left"
       data-candidate-rating="0.894"
       style="fill:#ec2027"
       id="text35"><textPath
         xlink:href="#label-path-DC_0_114"
         id="textPath35"><tspan
           x="0.02"
           dy="-2"
           id="tspan34">Draconis</tspan><tspan
           x="0"
           dy="2"
           id="tspan35">Combine</tspan></textPath></text>
    <text
       text-anchor="left"
       data-candidate-rating="0.963"
       style="fill:#4e7aac"
       id="text37"><textPath
         xlink:href="#label-path-FR_0_62"
         id="textPath37"><tspan
           x="0"
           dy="-2"
           id="tspan36">Free Rasalhague</tspan><tspan
           x="3.98"
           dy="2"
           id="tspan37">Republic</tspan></textPath></text>
    <text
       text-anchor="left"
       data-candidate-rating="0.803"
       style="fill:#4e7aac"
       id="text39"><textPath
         xlink:href="#label-path-FR_0_35"
         id="textPath39"><tspan
           x="0"
           dy="-2"
           id="tspan38">Free Rasalhague</tspan><tspan
           x="3.98"
           dy="2"
           id="tspan39">Republic</tspan></textPath></text>
    <text
       text-anchor="left"
       data-candidate-rating="0.908"
       style="fill:#7793a1"
       id="text41"><textPath
         xlink:href="#label-path-CGB_0_69"
         id="textPath41"><tspan
           x="0"
           dy="-2"
           id="tspan40">Clan Ghost</tspan><tspan
           x="3.1199999"
           dy="2"
           id="tspan41">Bear</tspan></textPath></text>
    <text
       text-anchor="left"
       data-candidate-rating="0.845"
       style="fill:#7793a1"
       id="text43"><textPath
         xlink:href="#label-path-CGB_0_45"
         id="textPath43"><tspan
           x="0"
           dy="-2"
           id="tspan42">Clan Ghost</tspan><tspan
           x="3.1199999"
           dy="2"
           id="tspan43">Bear</tspan></textPath></text>
    <text
       text-anchor="left"
       data-candidate-rating="0.820"
       style="fill:#7793a1"
       id="text45"><textPath
         xlink:href="#label-path-CGB_1_1"
         id="textPath45"><tspan
           x="0"
           dy="-2"
           id="tspan44">Clan Ghost</tspan><tspan
           x="3.1199999"
           dy="2"
           id="tspan45">Bear</tspan></textPath></text>
    <text
       text-anchor="left"
       data-candidate-rating="0.944"
       style="fill:#d9743d"
       id="text47"><textPath
         xlink:href="#label-path-CWF_0_59"
         id="textPath47"><tspan
           x="0.12"
           dy="-2"
           id="tspan46">Clan</tspan><tspan
           x="0"
           dy="2"
           id="tspan47">Wolf</tspan></textPath></text>
    <text
       text-anchor="left"
       data-candidate-rating="0.939"
       style="fill:#d9743d"
       id="text49"><textPath
         xlink:href="#label-path-CWF_1_107"
         id="textPath49"><tspan
           x="0.12"
           dy="-2"
           id="tspan48">Clan</tspan><tspan
           x="0"
           dy="2"
           id="tspan49">Wolf</tspan></textPath></text>
    <text
       text-anchor="left"
       data-candidate-rating="0.886"
       style="fill:#d9743d"
       id="text51"><textPath
         xlink:href="#label-path-CWF_1_55"
         id="textPath51"><tspan
           x="0.12"
           dy="-2"
           id="tspan50">Clan</tspan><tspan
           x="0"
           dy="2"
           id="tspan51">Wolf</tspan></textPath></text>
    <text
       text-anchor="left"
       data-candidate-rating="0.883"
       style="fill:#a3d451"
       id="text53"><textPath
         xlink:href="#label-path-CSV_0_13"
         id="textPath53"><tspan
           x="0"
           dy="-2"
           id="tspan52">Clan Steel</tspan><tspan
           x="2.4100001"
           dy="2"
           id="tspan53">Viper</tspan></textPath></text>
    <text
       text-anchor="left"
       data-candidate-rating="0.913"
       style="fill:#a3d451"
       id="text55"><textPath
         xlink:href="#label-path-CSV_1_9"
         id="textPath55"><tspan
           x="0"
           dy="-2"
           id="tspan54">Clan Steel</tspan><tspan
           x="2.4100001"
           dy="2"
           id="tspan55">Viper</tspan></textPath></text>
    <text
       text-anchor="left"
       data-candidate-rating="0.774"
       style="fill:#a3d451"
       id="text57"><textPath
         xlink:href="#label-path-CSV_2_2"
         id="textPath57"><tspan
           x="0"
           dy="-2"
           id="tspan56">Clan Steel</tspan><tspan
           x="2.4100001"
           dy="2"
           id="tspan57">Viper</tspan></textPath></text>
    <text
       text-anchor="left"
       data-candidate-rating="0.791"
       style="fill:#abd375"
       id="text59"><textPath
         xlink:href="#label-path-CJF_0_17"
         id="textPath59"><tspan
           x="0"
           dy="-2"
           id="tspan58">Clan Jade</tspan><tspan
           x="1.5599999"
           dy="2"
           id="tspan59">Falcon</tspan></textPath></text>
    <text
       text-anchor="left"
       data-candidate-rating="0.855"
       style="fill:#abd375"
       id="text61"><textPath
         xlink:href="#label-path-CJF_1_33"
         id="textPath61"><tspan
           x="0"
           dy="-2"
           id="tspan60">Clan Jade</tspan><tspan
           x="1.5599999"
           dy="2"
           id="tspan61">Falcon</tspan></textPath></text>
    <text
       text-anchor="left"
       data-candidate-rating="0.824"
       style="fill:#757c82"
       id="text62"><textPath
         xlink:href="#label-path-C_0_16"
         id="textPath62"><tspan
           x="0"
           dy="0"
           id="tspan62">Clans</tspan></textPath></text>
  </g>
  <g
     class="jump-radius-rings"
     id="g63"
     style="filter:url(#filter437)">
    <circle
       cx="-4.4310002"
       cy="-210.42"
       r="30"
       id="circle62" />
    <circle
       cx="-4.4310002"
       cy="-210.42"
       r="60"
       id="circle63" />
  </g>
  <g
     class="systems"
     id="g165"
     style="filter:url(#filter436)">
    <circle
       class="system FCL "
       data-name="Accrington"
       cx="-10.088"
       cy="-144.968"
       r="1"
       style="fill:#1861a3"
       id="circle64" />
    <circle
       class="system FR "
       data-name="Al Hillah"
       cx="-25.374001"
       cy="-178.71001"
       r="1"
       style="fill:#4e7aac"
       id="circle65" />
    <circle
       class="system FCL "
       data-name="Alexandria"
       cx="-57.639"
       cy="-115.993"
       r="1"
       style="fill:#1861a3"
       id="circle66" />
    <circle
       class="system DC "
       data-name="Gamma Sagittarius"
       cx="2.8380001"
       cy="-116.017"
       r="1"
       style="fill:#ec2027"
       id="circle67" />
    <circle
       class="system CWF "
       data-name="Altenmarkt"
       cx="13.692"
       cy="-223.80499"
       r="1"
       style="fill:#d9743d"
       id="circle68" />
    <circle
       class="system FCL "
       data-name="Apostica"
       cx="-59.712002"
       cy="-155.306"
       r="1"
       style="fill:#1861a3"
       id="circle69" />
    <circle
       class="system CGB "
       data-name="Ardoz"
       cx="46.259998"
       cy="-245.78"
       r="1"
       style="fill:#bae6fb"
       id="circle70" />
    <circle
       class="system DC "
       data-name="Aubisson"
       cx="4.3860002"
       cy="-146.51401"
       r="1"
       style="fill:#ec2027"
       id="circle71" />
    <circle
       class="system FCL "
       data-name="Auldhouse"
       cx="-51.012001"
       cy="-139.198"
       r="1"
       style="fill:#1861a3"
       id="circle72" />
    <circle
       class="system CSV "
       data-name="Benfled"
       cx="-72.904999"
       cy="-260.77301"
       r="1"
       style="fill:#a3d451"
       id="circle73" />
    <circle
       class="system CWF "
       data-name="Biota"
       cx="-44.735001"
       cy="-271.63199"
       r="1"
       style="fill:#d9743d"
       id="circle74" />
    <circle
       class="system FCL "
       data-name="Blue Diamond"
       cx="-41.623001"
       cy="-181.41499"
       r="1"
       style="fill:#1861a3"
       id="circle75" />
    <circle
       class="system DC "
       data-name="Buckminster"
       cx="17.582001"
       cy="-154.653"
       r="1"
       style="fill:#ec2027"
       id="circle76" />
    <circle
       class="system DC "
       data-name="Caldrea"
       cx="33.853001"
       cy="-193.30701"
       r="1"
       style="fill:#ec2027"
       id="circle77" />
    <circle
       class="system DC "
       data-name="Camlann"
       cx="0.52100003"
       cy="-165.62"
       r="1"
       style="fill:#ec2027"
       id="circle78" />
    <circle
       class="system CWF "
       data-name="Carse"
       cx="-15.777"
       cy="-239.05901"
       r="1"
       style="fill:#d9743d"
       id="circle79" />
    <circle
       class="system DC "
       data-name="Cebalrai"
       cx="-8.2889996"
       cy="-119.379"
       r="1"
       style="fill:#ec2027"
       id="circle80" />
    <circle
       class="system DC "
       data-name="Chandler"
       cx="47.036999"
       cy="-207.265"
       r="1"
       style="fill:#ec2027"
       id="circle81" />
    <circle
       class="system A "
       data-name="Chimpaw"
       cx="45.161999"
       cy="-154.465"
       r="1"
       style="fill:#000000"
       id="circle82" />
    <circle
       class="system FCL "
       data-name="Corridan"
       cx="-38.014"
       cy="-121.453"
       r="1"
       style="fill:#1861a3"
       id="circle83" />
    <circle
       class="system FCL "
       data-name="Crimond"
       cx="-68.521004"
       cy="-230.614"
       r="1"
       style="fill:#1861a3"
       id="circle84" />
    <circle
       class="system FCL "
       data-name="Dalkeith"
       cx="-26.4"
       cy="-157.711"
       r="1"
       style="fill:#1861a3"
       id="circle85" />
    <circle
       class="system DC "
       data-name="Darius"
       cx="65.124001"
       cy="-204.67799"
       r="1"
       style="fill:#ec2027"
       id="circle86" />
    <circle
       class="system FR "
       data-name="Dehgolan"
       cx="5.4250002"
       cy="-198.99699"
       r="1"
       style="fill:#4e7aac"
       id="circle87" />
    <circle
       class="system CWF "
       data-name="Diosd"
       cx="-2.3429999"
       cy="-230.52699"
       r="1"
       style="fill:#d9743d"
       id="circle88" />
    <circle
       class="system CWF "
       data-name="Domain"
       cx="-32.827999"
       cy="-248.12"
       r="1"
       style="fill:#d9743d"
       id="circle89" />
    <circle
       class="system A "
       data-name="Dove"
       cx="33.666"
       cy="-178.549"
       r="1"
       style="fill:#000000"
       id="circle90" />
    <circle
       class="system FCL "
       data-name="Eaglesham"
       cx="-33.348999"
       cy="-134.632"
       r="1"
       style="fill:#1861a3"
       id="circle91" />
    <circle
       class="system CGB "
       data-name="Eguilles"
       cx="37.214001"
       cy="-233.116"
       r="1"
       style="fill:#bae6fb"
       id="circle92" />
    <circle
       class="system FCL "
       data-name="Fatima"
       cx="-31.294001"
       cy="-175.72701"
       r="1"
       style="fill:#1861a3"
       id="circle93" />
    <circle
       class="system A "
       data-name="Fefferfer"
       cx="17.143999"
       cy="-203.222"
       r="1"
       style="fill:#000000"
       id="circle94" />
    <circle
       class="system FCL "
       data-name="Fort Loudon"
       cx="-32.326"
       cy="-209.08099"
       r="1"
       style="fill:#1861a3"
       id="circle95" />
    <circle
       class="system CWF "
       data-name="Galuzzo"
       cx="-15.527"
       cy="-250.95399"
       r="1"
       style="fill:#d9743d"
       id="circle96" />
    <circle
       class="system FCL "
       data-name="Ganshoren"
       cx="-43.428001"
       cy="-158.14999"
       r="1"
       style="fill:#1861a3"
       id="circle97" />
    <circle
       class="system A "
       data-name="Glenlivet"
       cx="14.499"
       cy="-174.53999"
       r="1"
       style="fill:#000000"
       id="circle98" />
    <circle
       class="system DC "
       data-name="Gram"
       cx="54.278999"
       cy="-144.452"
       r="1"
       style="fill:#ec2027"
       id="circle99" />
    <circle
       class="system FR "
       data-name="Grumium"
       cx="-4.9229999"
       cy="-186.84599"
       r="1"
       style="fill:#4e7aac"
       id="circle100" />
    <circle
       class="system CWF "
       data-name="Hainfeld"
       cx="-13.447"
       cy="-268.52499"
       r="1"
       style="fill:#d9743d"
       id="circle101" />
    <circle
       class="system CGB "
       data-name="Halesowen"
       cx="36.438999"
       cy="-251.726"
       r="1"
       style="fill:#bae6fb"
       id="circle102" />
    <circle
       class="system CSV "
       data-name="Jabuka"
       cx="-28.450001"
       cy="-219.41701"
       r="1"
       style="fill:#a3d451"
       id="circle103" />
    <circle
       class="system A "
       data-name="Kannon"
       cx="-11.93"
       cy="-124.441"
       r="1"
       style="fill:#000000"
       id="circle104" />
    <circle
       class="system FR "
       data-name="Karbala"
       cx="-23.783001"
       cy="-196.668"
       r="1"
       style="fill:#4e7aac"
       id="circle105" />
    <circle
       class="system FCL "
       data-name="Kelenfold"
       cx="-57.391998"
       cy="-198.214"
       r="1"
       style="fill:#1861a3"
       id="circle106" />
    <circle
       class="system DC "
       data-name="Kiesen"
       cx="50.91"
       cy="-216.314"
       r="1"
       style="fill:#ec2027"
       id="circle107" />
    <circle
       class="system A "
       data-name="Kingtribel"
       cx="32.591999"
       cy="-142.444"
       r="1"
       style="fill:#000000"
       id="circle108" />
    <circle
       class="system CGB "
       data-name="Krenice"
       cx="56.856998"
       cy="-230.272"
       r="1"
       style="fill:#bae6fb"
       id="circle109" />
    <circle
       class="system CJF "
       data-name="La Grave"
       cx="-51.188999"
       cy="-247.06799"
       r="1"
       style="fill:#abd375"
       id="circle110" />
    <circle
       class="system CWF "
       data-name="Lothan"
       cx="-9.8369999"
       cy="-220.70599"
       r="1"
       style="fill:#d9743d"
       id="circle111" />
    <circle
       class="system CGB "
       data-name="Mannedorf"
       cx="49.098"
       cy="-226.91"
       r="1"
       style="fill:#bae6fb"
       id="circle112" />
    <circle
       class="system CGB "
       data-name="Marawi"
       cx="62.280998"
       cy="-264.91101"
       r="1"
       style="fill:#bae6fb"
       id="circle113" />
    <circle
       class="system CGB "
       data-name="Maule"
       cx="31.790001"
       cy="-245.26199"
       r="1"
       style="fill:#bae6fb"
       id="circle114" />
    <circle
       class="system FCL "
       data-name="Meacham"
       cx="-28.698999"
       cy="-187.35899"
       r="1"
       style="fill:#1861a3"
       id="circle115" />
    <circle
       class="system DC "
       data-name="Meilen"
       cx="59.959"
       cy="-219.67599"
       r="1"
       style="fill:#ec2027"
       id="circle116" />
    <circle
       class="system DC "
       data-name="Minakuchi"
       cx="63.844002"
       cy="-116.53"
       r="1"
       style="fill:#ec2027"
       id="circle117" />
    <circle
       class="system CSV "
       data-name="Montmarault"
       cx="-59.198002"
       cy="-263.09399"
       r="1"
       style="fill:#a3d451"
       id="circle118" />
    <circle
       class="system FCL "
       data-name="Morningside"
       cx="-35.676998"
       cy="-167.97301"
       r="1"
       style="fill:#1861a3"
       id="circle119" />
    <circle
       class="system DC "
       data-name="Najha"
       cx="35.666"
       cy="-211.136"
       r="1"
       style="fill:#ec2027"
       id="circle120" />
    <circle
       class="system CWF "
       data-name="Nox"
       cx="13.177"
       cy="-239.832"
       r="1"
       style="fill:#d9743d"
       id="circle121" />
    <circle
       class="system DC "
       data-name="Numki"
       cx="49.098"
       cy="-201.061"
       r="1"
       style="fill:#ec2027"
       id="circle122" />
    <circle
       class="system-decoration FR faction-capital"
       data-name="Orestes"
       cx="-26.121"
       cy="-167.591"
       r="1.5"
       id="circle123" />
    <circle
       class="system-decoration FR faction-capital"
       data-name="Orestes"
       cx="-26.121"
       cy="-167.591"
       r="2"
       id="circle124" />
    <circle
       class="system FR faction-capital"
       data-name="Orestes"
       cx="-26.121"
       cy="-167.591"
       r="1"
       style="fill:#4e7aac"
       id="circle125" />
    <circle
       class="system-decoration FR faction-capital"
       data-name="Orestes"
       cx="-26.121"
       cy="-167.591"
       r="0.15000001"
       id="circle126" />
    <circle
       class="system C "
       data-name="Orkney"
       cx="-48.602001"
       cy="-234.925"
       r="1"
       style="fill:#757c82"
       id="circle127" />
    <circle
       class="system A "
       data-name="Oyevaina"
       cx="37.669998"
       cy="-264.05399"
       r="1"
       style="fill:#000000"
       id="circle128" />
    <circle
       class="system CWF "
       data-name="Shaula"
       cx="-30.648001"
       cy="-269.78799"
       r="1"
       style="fill:#d9743d"
       id="circle129" />
    <circle
       class="system FCL "
       data-name="Phalan"
       cx="-19.908001"
       cy="-134.37199"
       r="1"
       style="fill:#1861a3"
       id="circle130" />
    <circle
       class="system DC "
       data-name="Pilkhua"
       cx="33.592999"
       cy="-206.231"
       r="1"
       style="fill:#ec2027"
       id="circle131" />
    <circle
       class="system FCL "
       data-name="Port Moseby"
       cx="3.3540001"
       cy="-160.222"
       r="1"
       style="fill:#1861a3"
       id="circle132" />
    <circle
       class="system A "
       data-name="Qualip"
       cx="-72.642998"
       cy="-189.27"
       r="1"
       style="fill:#000000"
       id="circle133" />
    <circle
       class="system CJF "
       data-name="Quarell"
       cx="-30.504"
       cy="-232.59599"
       r="1"
       style="fill:#abd375"
       id="circle134" />
    <circle
       class="system CWF "
       data-name="Ramsau"
       cx="-0.273"
       cy="-222.51801"
       r="1"
       style="fill:#d9743d"
       id="circle135" />
    <circle
       class="system FCL "
       data-name="Rasalgethi"
       cx="-41.881001"
       cy="-212.179"
       r="1"
       style="fill:#1861a3"
       id="circle136" />
    <circle
       class="system CWF "
       data-name="Rastaban"
       cx="-33.617001"
       cy="-262.84"
       r="1"
       style="fill:#d9743d"
       id="circle137" />
    <circle
       class="system CGB "
       data-name="Rubigen"
       cx="30.493"
       cy="-217.858"
       r="1"
       style="fill:#bae6fb"
       id="circle138" />
    <circle
       class="system FCL "
       data-name="Sakhalin"
       cx="-24.041"
       cy="-151.687"
       r="1"
       style="fill:#1861a3"
       id="circle139" />
    <circle
       class="system CWF "
       data-name="Satalice"
       cx="5.9400001"
       cy="-260.77399"
       r="1"
       style="fill:#d9743d"
       id="circle140" />
    <circle
       class="system A "
       data-name="Sendai"
       cx="62.141998"
       cy="-166.422"
       r="1"
       style="fill:#000000"
       id="circle141" />
    <circle
       class="system CGB "
       data-name="Setubal"
       cx="44.191002"
       cy="-237.51601"
       r="1"
       style="fill:#bae6fb"
       id="circle142" />
    <circle
       class="system A "
       data-name="Shardayne"
       cx="4.579"
       cy="-247.12"
       r="1"
       style="fill:#000000"
       id="circle143" />
    <circle
       class="system DC "
       data-name="Shimosuwa"
       cx="46.001999"
       cy="-135.405"
       r="1"
       style="fill:#ec2027"
       id="circle144" />
    <circle
       class="system DC "
       data-name="Shionoha"
       cx="-5.704"
       cy="-134.377"
       r="1"
       style="fill:#ec2027"
       id="circle145" />
    <circle
       class="system DC "
       data-name="Shirotori"
       cx="18.082001"
       cy="-189.692"
       r="1"
       style="fill:#ec2027"
       id="circle146" />
    <circle
       class="system CWF "
       data-name="Skandia"
       cx="22.742001"
       cy="-251.468"
       r="1"
       style="fill:#d9743d"
       id="circle147" />
    <circle
       class="system CGB "
       data-name="Sternwerde"
       cx="63.834"
       cy="-248.625"
       r="1"
       style="fill:#bae6fb"
       id="circle148" />
    <circle
       class="system CWF "
       data-name="Suk"
       cx="-29.214001"
       cy="-256.116"
       r="1"
       style="fill:#d9743d"
       id="circle149" />
    <circle
       class="system DC "
       data-name="Sulafat"
       cx="48.334"
       cy="-184.257"
       r="1"
       style="fill:#ec2027"
       id="circle150" />
    <circle
       class="system FCL "
       data-name="Symington"
       cx="-38.521"
       cy="-147.812"
       r="1"
       style="fill:#1861a3"
       id="circle151" />
    <circle
       class="system A "
       data-name="Talisker"
       cx="29.066999"
       cy="-130.19501"
       r="1"
       style="fill:#000000"
       id="circle152" />
    <circle
       class="system CWF "
       data-name="Thun"
       cx="-17.846001"
       cy="-259.733"
       r="1"
       style="fill:#d9743d"
       id="circle153" />
    <circle
       class="system CGB "
       data-name="Toffen"
       cx="41.612999"
       cy="-221.742"
       r="1"
       style="fill:#bae6fb"
       id="circle154" />
    <circle
       class="system FCL "
       data-name="Tomans"
       cx="-50.931"
       cy="-222.258"
       r="1"
       style="fill:#1861a3"
       id="circle155" />
    <circle
       class="system DC "
       data-name="Trolloc Prime"
       cx="33.584999"
       cy="-171.08"
       r="1"
       style="fill:#ec2027"
       id="circle156" />
    <circle
       class="system DC "
       data-name="Tsukude"
       cx="20.153"
       cy="-119.374"
       r="1"
       style="fill:#ec2027"
       id="circle157" />
    <circle
       class="system FR "
       data-name="Tukayyid"
       cx="-4.4310002"
       cy="-210.42"
       r="1"
       style="fill:#4e7aac"
       id="circle158" />
    <circle
       class="system FR "
       data-name="Ueda"
       cx="-14.044"
       cy="-207.93401"
       r="1"
       style="fill:#4e7aac"
       id="circle159" />
    <circle
       class="system CGB "
       data-name="Utrecht"
       cx="23.514"
       cy="-236.47301"
       r="1"
       style="fill:#bae6fb"
       id="circle160" />
    <circle
       class="system CWF "
       data-name="Wheel"
       cx="-30.511999"
       cy="-264.91101"
       r="1"
       style="fill:#d9743d"
       id="circle161" />
    <circle
       class="system FCL "
       data-name="Yed Posterior"
       cx="-44.212002"
       cy="-119.119"
       r="1"
       style="fill:#1861a3"
       id="circle162" />
    <circle
       class="system FCL "
       data-name="Yed Prior"
       cx="-62.042"
       cy="-124.024"
       r="1"
       style="fill:#1861a3"
       id="circle163" />
    <circle
       class="system A "
       data-name="Lamar"
       cx="14.737"
       cy="-266.67801"
       r="1"
       style="fill:#000000"
       id="circle164" />
    <circle
       class="system A "
       data-name="Juniper"
       cx="9.7349997"
       cy="-131.74699"
       r="1"
       style="fill:#000000"
       id="circle165" />
  </g>
  <g
     class="system-labels"
     id="g264"
     style="filter:url(#filter435)">
    <text
       x="-8.5880003"
       y="-144.218"
       class="system-label "
       filter="url(#sLblShd)"
       id="text165">Accrington</text>
    <text
       x="-23.874001"
       y="-177.96001"
       class="system-label "
       filter="url(#sLblShd)"
       id="text166">Al Hillah</text>
    <text
       x="-56.139"
       y="-115.92"
       class="system-label "
       filter="url(#sLblShd)"
       id="text167">Alexandria</text>
    <text
       x="4.3379998"
       y="-115.92"
       class="system-label "
       filter="url(#sLblShd)"
       id="text168">Gamma Sagittarius</text>
    <text
       x="15.192"
       y="-223.05499"
       class="system-label "
       filter="url(#sLblShd)"
       id="text169">Altenmarkt</text>
    <text
       x="-58.212002"
       y="-154.556"
       class="system-label "
       filter="url(#sLblShd)"
       id="text170">Apostica</text>
    <text
       x="47.759998"
       y="-245.03"
       class="system-label "
       filter="url(#sLblShd)"
       id="text171">Ardoz</text>
    <text
       x="5.8860002"
       y="-145.76401"
       class="system-label "
       filter="url(#sLblShd)"
       id="text172">Aubisson</text>
    <text
       x="-49.512001"
       y="-139.382"
       class="system-label "
       filter="url(#sLblShd)"
       id="text173">Auldhouse</text>
    <text
       x="-71.404999"
       y="-260.02301"
       class="system-label "
       filter="url(#sLblShd)"
       id="text174">Benfled</text>
    <text
       x="-43.235001"
       y="-270.88199"
       class="system-label "
       filter="url(#sLblShd)"
       id="text175">Biota</text>
    <text
       x="-40.123001"
       y="-180.66499"
       class="system-label "
       filter="url(#sLblShd)"
       id="text176">Blue Diamond</text>
    <text
       x="19.082001"
       y="-153.903"
       class="system-label "
       filter="url(#sLblShd)"
       id="text177">Buckminster</text>
    <text
       x="35.353001"
       y="-192.55701"
       class="system-label "
       filter="url(#sLblShd)"
       id="text178">Caldrea</text>
    <text
       x="2.0209999"
       y="-164.87"
       class="system-label "
       filter="url(#sLblShd)"
       id="text179">Camlann</text>
    <text
       x="-14.277"
       y="-238.30901"
       class="system-label "
       filter="url(#sLblShd)"
       id="text180">Carse</text>
    <text
       x="-6.789"
       y="-118.629"
       class="system-label "
       filter="url(#sLblShd)"
       id="text181">Cebalrai</text>
    <text
       x="48.536999"
       y="-206.515"
       class="system-label "
       filter="url(#sLblShd)"
       id="text182">Chandler</text>
    <text
       x="46.661999"
       y="-153.715"
       class="system-label abandoned"
       filter="url(#sLblShd)"
       id="text183">Chimpaw</text>
    <text
       x="-36.514"
       y="-120.703"
       class="system-label "
       filter="url(#sLblShd)"
       id="text184">Corridan</text>
    <text
       x="-67.021004"
       y="-229.864"
       class="system-label "
       filter="url(#sLblShd)"
       id="text185">Crimond</text>
    <text
       x="-24.9"
       y="-156.961"
       class="system-label "
       filter="url(#sLblShd)"
       id="text186">Dalkeith</text>
    <text
       x="58.578999"
       y="-206.42799"
       class="system-label "
       filter="url(#sLblShd)"
       id="text187">Darius</text>
    <text
       x="6.9250002"
       y="-198.24699"
       class="system-label "
       filter="url(#sLblShd)"
       id="text188">Dehgolan</text>
    <text
       x="-0.84299999"
       y="-229.77699"
       class="system-label "
       filter="url(#sLblShd)"
       id="text189">Diosd</text>
    <text
       x="-31.327999"
       y="-247.37"
       class="system-label "
       filter="url(#sLblShd)"
       id="text190">Domain</text>
    <text
       x="35.166"
       y="-177.799"
       class="system-label abandoned"
       filter="url(#sLblShd)"
       id="text191">Dove</text>
    <text
       x="-39.301998"
       y="-136.382"
       class="system-label "
       filter="url(#sLblShd)"
       id="text192">Eaglesham</text>
    <text
       x="38.714001"
       y="-232.366"
       class="system-label "
       filter="url(#sLblShd)"
       id="text193">Eguilles</text>
    <text
       x="-29.794001"
       y="-174.97701"
       class="system-label "
       filter="url(#sLblShd)"
       id="text194">Fatima</text>
    <text
       x="18.643999"
       y="-202.472"
       class="system-label abandoned"
       filter="url(#sLblShd)"
       id="text195">Fefferfer</text>
    <text
       x="-30.826"
       y="-208.33099"
       class="system-label "
       filter="url(#sLblShd)"
       id="text196">Fort Loudon</text>
    <text
       x="-14.027"
       y="-250.20399"
       class="system-label "
       filter="url(#sLblShd)"
       id="text197">Galuzzo</text>
    <text
       x="-41.928001"
       y="-157.39999"
       class="system-label "
       filter="url(#sLblShd)"
       id="text198">Ganshoren</text>
    <text
       x="15.999"
       y="-173.78999"
       class="system-label abandoned"
       filter="url(#sLblShd)"
       id="text199">Glenlivet</text>
    <text
       x="55.778999"
       y="-143.702"
       class="system-label "
       filter="url(#sLblShd)"
       id="text200">Gram</text>
    <text
       x="-3.4230001"
       y="-186.09599"
       class="system-label "
       filter="url(#sLblShd)"
       id="text201">Grumium</text>
    <text
       x="-11.947"
       y="-267.77499"
       class="system-label "
       filter="url(#sLblShd)"
       id="text202">Hainfeld</text>
    <text
       x="37.938999"
       y="-250.976"
       class="system-label "
       filter="url(#sLblShd)"
       id="text203">Halesowen</text>
    <text
       x="-26.950001"
       y="-218.66701"
       class="system-label "
       filter="url(#sLblShd)"
       id="text204">Jabuka</text>
    <text
       x="-10.43"
       y="-123.691"
       class="system-label abandoned"
       filter="url(#sLblShd)"
       id="text205">Kannon</text>
    <text
       x="-22.283001"
       y="-195.918"
       class="system-label "
       filter="url(#sLblShd)"
       id="text206">Karbala</text>
    <text
       x="-55.891998"
       y="-197.464"
       class="system-label "
       filter="url(#sLblShd)"
       id="text207">Kelenfold</text>
    <text
       x="52.41"
       y="-215.564"
       class="system-label "
       filter="url(#sLblShd)"
       id="text208">Kiesen</text>
    <text
       x="34.091999"
       y="-141.694"
       class="system-label abandoned"
       filter="url(#sLblShd)"
       id="text209">Kingtribel</text>
    <text
       x="52.796001"
       y="-232.022"
       class="system-label "
       filter="url(#sLblShd)"
       id="text210">Krenice</text>
    <text
       x="-49.688999"
       y="-246.31799"
       class="system-label "
       filter="url(#sLblShd)"
       id="text211">La Grave</text>
    <text
       x="-8.3369999"
       y="-219.01801"
       class="system-label "
       filter="url(#sLblShd)"
       id="text212">Lothan</text>
    <text
       x="50.598"
       y="-226.16"
       class="system-label "
       filter="url(#sLblShd)"
       id="text213">Mannedorf</text>
    <text
       x="57.691002"
       y="-266.66101"
       class="system-label "
       filter="url(#sLblShd)"
       id="text214">Marawi</text>
    <text
       x="33.290001"
       y="-244.51199"
       class="system-label "
       filter="url(#sLblShd)"
       id="text215">Maule</text>
    <text
       x="-27.198999"
       y="-186.60899"
       class="system-label "
       filter="url(#sLblShd)"
       id="text216">Meacham</text>
    <text
       x="56.411999"
       y="-221.42599"
       class="system-label "
       filter="url(#sLblShd)"
       id="text217">Meilen</text>
    <text
       x="54.606998"
       y="-118.28"
       class="system-label "
       filter="url(#sLblShd)"
       id="text218">Minakuchi</text>
    <text
       x="-57.698002"
       y="-262.34399"
       class="system-label "
       filter="url(#sLblShd)"
       id="text219">Montmarault</text>
    <text
       x="-42.332001"
       y="-169.72301"
       class="system-label "
       filter="url(#sLblShd)"
       id="text220">Morningside</text>
    <text
       x="37.166"
       y="-210.386"
       class="system-label "
       filter="url(#sLblShd)"
       id="text221">Najha</text>
    <text
       x="14.677"
       y="-239.082"
       class="system-label "
       filter="url(#sLblShd)"
       id="text222">Nox</text>
    <text
       x="50.598"
       y="-200.311"
       class="system-label "
       filter="url(#sLblShd)"
       id="text223">Numki</text>
    <text
       x="-24.621"
       y="-167.341"
       class="system-label "
       filter="url(#sLblShd)"
       id="text224">Orestes</text>
    <text
       x="-24.471001"
       y="-165.841"
       filter="url(#sLblShd)"
       class="system-label additions "
       id="text225"><tspan
         x="-24.471001"
         y="-165.841"
         class="capital faction"
         id="tspan224">faction capital</tspan></text>
    <text
       x="-47.102001"
       y="-234.175"
       class="system-label "
       filter="url(#sLblShd)"
       id="text226">Orkney</text>
    <text
       x="39.169998"
       y="-263.30399"
       class="system-label abandoned"
       filter="url(#sLblShd)"
       id="text227">Oyevaina</text>
    <text
       x="-29.148001"
       y="-269.03799"
       class="system-label "
       filter="url(#sLblShd)"
       id="text228">Shaula</text>
    <text
       x="-18.408001"
       y="-133.62199"
       class="system-label "
       filter="url(#sLblShd)"
       id="text229">Phalan</text>
    <text
       x="35.092999"
       y="-205.481"
       class="system-label "
       filter="url(#sLblShd)"
       id="text230">Pilkhua</text>
    <text
       x="4.8540001"
       y="-159.472"
       class="system-label "
       filter="url(#sLblShd)"
       id="text231">Port Moseby</text>
    <text
       x="-71.142998"
       y="-188.52"
       class="system-label abandoned"
       filter="url(#sLblShd)"
       id="text232">Qualip</text>
    <text
       x="-29.004"
       y="-231.84599"
       class="system-label "
       filter="url(#sLblShd)"
       id="text233">Quarell</text>
    <text
       x="1.227"
       y="-221.76801"
       class="system-label "
       filter="url(#sLblShd)"
       id="text234">Ramsau</text>
    <text
       x="-40.381001"
       y="-211.429"
       class="system-label "
       filter="url(#sLblShd)"
       id="text235">Rasalgethi</text>
    <text
       x="-32.117001"
       y="-261.16101"
       class="system-label "
       filter="url(#sLblShd)"
       id="text236">Rastaban</text>
    <text
       x="31.993"
       y="-217.108"
       class="system-label "
       filter="url(#sLblShd)"
       id="text237">Rubigen</text>
    <text
       x="-22.541"
       y="-150.937"
       class="system-label "
       filter="url(#sLblShd)"
       id="text238">Sakhalin</text>
    <text
       x="7.4400001"
       y="-260.02399"
       class="system-label "
       filter="url(#sLblShd)"
       id="text239">Satalice</text>
    <text
       x="58.201"
       y="-168.172"
       class="system-label abandoned"
       filter="url(#sLblShd)"
       id="text240">Sendai</text>
    <text
       x="45.691002"
       y="-236.76601"
       class="system-label "
       filter="url(#sLblShd)"
       id="text241">Setubal</text>
    <text
       x="6.079"
       y="-246.37"
       class="system-label abandoned"
       filter="url(#sLblShd)"
       id="text242">Shardayne</text>
    <text
       x="47.501999"
       y="-134.655"
       class="system-label "
       filter="url(#sLblShd)"
       id="text243">Shimosuwa</text>
    <text
       x="-4.204"
       y="-133.627"
       class="system-label "
       filter="url(#sLblShd)"
       id="text244">Shionoha</text>
    <text
       x="19.582001"
       y="-188.942"
       class="system-label "
       filter="url(#sLblShd)"
       id="text245">Shirotori</text>
    <text
       x="24.242001"
       y="-250.718"
       class="system-label "
       filter="url(#sLblShd)"
       id="text246">Skandia</text>
    <text
       x="52.959"
       y="-250.375"
       class="system-label "
       filter="url(#sLblShd)"
       id="text247">Sternwerde</text>
    <text
       x="-27.714001"
       y="-255.366"
       class="system-label "
       filter="url(#sLblShd)"
       id="text248">Suk</text>
    <text
       x="49.834"
       y="-183.507"
       class="system-label "
       filter="url(#sLblShd)"
       id="text249">Sulafat</text>
    <text
       x="-37.021"
       y="-147.062"
       class="system-label "
       filter="url(#sLblShd)"
       id="text250">Symington</text>
    <text
       x="30.566999"
       y="-129.44501"
       class="system-label abandoned"
       filter="url(#sLblShd)"
       id="text251">Talisker</text>
    <text
       x="-16.346001"
       y="-258.983"
       class="system-label "
       filter="url(#sLblShd)"
       id="text252">Thun</text>
    <text
       x="43.112999"
       y="-220.992"
       class="system-label "
       filter="url(#sLblShd)"
       id="text253">Toffen</text>
    <text
       x="-49.431"
       y="-221.508"
       class="system-label "
       filter="url(#sLblShd)"
       id="text254">Tomans</text>
    <text
       x="35.084999"
       y="-170.33"
       class="system-label "
       filter="url(#sLblShd)"
       id="text255">Trolloc Prime</text>
    <text
       x="21.653"
       y="-118.624"
       class="system-label "
       filter="url(#sLblShd)"
       id="text256">Tsukude</text>
    <text
       x="-2.931"
       y="-209.67"
       class="system-label "
       filter="url(#sLblShd)"
       id="text257">Tukayyid</text>
    <text
       x="-12.544"
       y="-207.18401"
       class="system-label "
       filter="url(#sLblShd)"
       id="text258">Ueda</text>
    <text
       x="25.014"
       y="-235.72301"
       class="system-label "
       filter="url(#sLblShd)"
       id="text259">Utrecht</text>
    <text
       x="-29.011999"
       y="-264.16101"
       class="system-label "
       filter="url(#sLblShd)"
       id="text260">Wheel</text>
    <text
       x="-42.712002"
       y="-117.703"
       class="system-label "
       filter="url(#sLblShd)"
       id="text261">Yed Posterior</text>
    <text
       x="-60.542"
       y="-123.274"
       class="system-label "
       filter="url(#sLblShd)"
       id="text262">Yed Prior</text>
    <text
       x="16.237"
       y="-265.92801"
       class="system-label abandoned"
       filter="url(#sLblShd)"
       id="text263">Lamar</text>
    <text
       x="11.235"
       y="-130.99699"
       class="system-label abandoned"
       filter="url(#sLblShd)"
       id="text264">Juniper</text>
  </g>
  <g
     class="minimap"
     id="g290"
     style="filter:url(#filter434)">
    <g
       class="minimap-outer"
       transform="matrix(0.04666667,0,0,0.04666667,8.169,-144.82)"
       id="g289">
      <rect
         x="0"
         y="0"
         width="1200"
         height="600"
         style="fill:#ffffff"
         id="rect264" />
      <g
         class="minimap-inner"
         clip-path="url(#minimapClip)"
         transform="translate(604.431,510.42)"
         id="g288">
        <path
           fill-rule="evenodd"
           class="border FCL"
           style="fill:#1861a3;fill-opacity:0.3;stroke:#1861a3;stroke-width:2px"
           d="m 1.88,5.46 4.31,-1.37 2.11,2.26 2.32,1.08 11.89,-0.27 0.66,-0.79 15.26,5.98 3.49,-1.29 2.18,-9.53 16.71,1.34 0.02,0.21 -4.95,10.76 0.32,0.85 -4.6,8.58 0.09,0.89 -5.24,6.27 3.81,5.21 1.07,3.89 12.67,-2.72 0.25,-0.22 5.96,0.45 0.28,-0.57 0.72,-14.09 9.63,0.05 4.09,-10.25 1.85,-2.63 -0.33,-1.08 6.92,-13.85 6.6,-1.99 6.7,12.3 -13.33,6.76 3.6,9.64 -11.38,7.45 0.11,0.85 -5.55,9.14 1.84,4.48 12.27,3.77 2.3,-9.59 6.36,-3.52 4.27,1.7 5.57,7.35 0.16,3.23 -18.85,1.05 -0.67,4.1 -0.7,2.49 0.23,1.71 -1.28,4.95 -11.22,6.77 -0.05,2.14 -14.43,4.91 -0.4,0.46 2.83,7.02 -7.45,7.45 1.05,3.88 2.3,0.76 14.83,-3.25 1.31,1.4 16.59,-8.66 1.79,-2.57 3.04,-1.29 6.53,13.89 -5.32,7.47 -4.03,0.94 -0.02,11.81 14.67,5.92 -88.39,-1.75 1.6,-16.29 -1.95,-3.03 5.05,-9.44 -1.19,-8.72 -3.27,-4.24 -5.58,-2.84 -1.32,-0.28 -14.52,9.8 -2.7,-0.63 3.11,-9.87 -2.03,-3.62 -9.11,-1.79 -2.3,-7.29 -19.79,7.31 -2.99,-1.81 -0.39,-0.38 -0.67,-9.87 -9.16,-8.56 -1.27,-2.7 0.22,-3.55 -3.22,-11.34 -4.02,-2.36 -0.48,0.07 -11.22,-2.62 -3.18,0.03 -1.36,-10.99 -3.79,-1.65 -1.67,-5.06 -8.42,-0.69 -2,-8.15 -11.31,-1.22 -8.94,10.24 -7.16,-3.42 -16.1,15.57 -1.69,-0.48 -5.79,-17.66 -16.19,2.06 -4.07,6.27 0.01,6.46 -4.71,6.35 -16.79,-4.23 -6.95,6.7 1.65,9.29 -10.14,6.46 -9.27,-2.47 -0.97,-1.55 -18.92,-4 -1.12,6.16 -7.87,6.5 -15.92,-3.94 -1.02,-5.41 -35.65,-8.51 -1.42,-1.37 -14.37,10.98 -2.05,25.15 -7.29,0.99 -12.81,-16.52 -6.1,7.21 -0.11,14.7 -17.81,-0.07 -1.85,-3.31 -17.35,-4.84 -4.74,10.95 -12.32,3.88 -4.06,-17.42 -16.23,-3.36 -1.74,0.72 -7.22,-4.85 -1.76,-3.91 -22.85,-7.23 -8.15,3.06 -17.52,-3.89 6.57,-19.88 -0.58,-18.94 -13.81,-15.74 0.12,-1.28 -22.4,-39.68 -8.47,-4.85 0.33,-24.86 27.99,-8.49 13.22,-21.07 -6.62,-14.31 8.06,-5.76 2.82,-5.25 -2.04,-33.9 -8.19,-4.24 -2.41,-11.6 12.27,-19.47 8.81,-1.3 12.4,-32.49 -15.02,-24.1 10.04,-6.05 9.13,-9.31 14.18,-28.43 0.16,0.01 14.06,-10.29 6.45,-12.57 -1.2,-19.51 24.91,-29.28 3.57,-11.07 29.43,11.57 17.95,-2.46 17.04,-11.29 16.49,0.51 1.71,-0.61 24.76,7.01 4.96,-1.54 23.27,-25.5 2.88,-22.69 1.91,-2.74 17.32,9.66 18.17,26.09 -12.1,16.52 4.05,8.37 0.02,-0.02 3.15,24.59 14.95,1.27 3.72,3.08 9.06,-2.17 0.78,0.36 12.49,17.58 1.81,0.91 2.2,8.14 -0.14,0.48 2.02,10.32 22.05,7.55 -13.05,16.3 9.43,10.82 15.18,-0.66 1.96,1.8 -0.18,3.87 13.48,15.57 14.31,-7.96 0.64,15.22 15.84,10.18 -0.01,0.47 6.82,7.2 1.99,8.9 17.59,3.26 1.02,2.08 -0.12,0.93 4.18,7.74 12.24,4.52 -0.35,4.84 -12.93,9.13 19.46,10.46 0.02,-0.47 -13.82,5.4 4.25,8.53 -4.44,2.74 -0.23,8.13 18.03,0.57 0.6,2.34 0.54,0.93 3.56,1.79 23.74,-12.81 -6.28,15.47 -12.72,1.03 1.12,10.95 -10.35,4.26 -0.03,9.82 -6.45,4.94 -2.92,1.14 0.56,14.47 -4.67,3.18 -14.57,-4.97 -1.39,0.73 5.41,13.05 -2.94,3.28 0.38,11.04 9.68,-1.08 6.21,8.14 -5.95,9.55 -7.33,0.02 -4.82,11.36 13.18,5.43 2.43,0.51 2.05,-2.31 1.77,-7.4 2.34,-0.74 13.51,-12.39 0.02,-0.19 2.75,-2.66 15.56,2.01 1.88,2.82 0.3,2 11.1,11.67 -1.96,3.35 -9.57,3.56 -1.17,10.33 -3.3,4.05 -3.41,-0.38 -9.08,6.69 3.44,9.71 -1.86,4.36 5.45,5.61 -8.85,10.07 7.35,2.61"
           id="path264" />
        <path
           fill-rule="evenodd"
           class="border CSJ"
           style="fill:#2f2e30;fill-opacity:0.3;stroke:#2f2e30;stroke-width:2px"
           d="m 68.76,-228.59 -7.03,-10.45 15.92,-13.3 1.69,18.24 0.05,-0.08 -10.63,5.59 m 65.5,-17.7 -16.57,3.69 -7.9,-11.86 1.71,-3.56 -18.15,-31.44 3.67,-4.42 6.78,-3.96 22.91,10.76 0.67,1.45 12.26,9.84 2.36,9.2 1.28,1.65 -4.67,19.33 -4.35,-0.68 m -23.54,-79.36 2.53,-10.01 -5.22,-21.4 -0.03,0.11 11.14,-18.96 -2.54,-6.12 -12.51,-12.62 17.85,-14.17 -9.67,-15.07 -0.01,-22.12 0.19,-0.22 -0.15,-21.96 1.37,-2.79 30.8,-6.75 23.43,14.26 15.45,-3.73 32.61,25.15 -1.5,5.29 2.89,14.95 16.52,26.83 0.02,0.4 -19.6,14.1 1.18,2.75 -3.73,24.58 -5.71,4.34 6.45,9.82 1.52,7.17 -11.04,12.64 -8.07,0.88 -7,-6.64 -8.75,0.55 -8.26,8.05 -0.27,0.87 -21.76,9.67 -5.16,-1.63 -1.26,-3.48 -19.21,-12.52 -12.5,-2.22 m 29.04,-7.37 -1.26,-12.47 8.28,-2.38 13.94,2.59 -7.53,17.34 -3.83,1.6 -9.6,-6.68 m -59.9,-136.55 -31.7,-7.09 14.38,-34.6 28.77,-7.36 3.42,13.16 -14.87,35.89"
           id="path265" />
        <path
           fill-rule="evenodd"
           class="border CNC"
           style="fill:#381715;fill-opacity:0.3;stroke:#381715;stroke-width:2px"
           d="m 78.35,-252.75 1.44,-4.83 0.49,-0.25 9.08,-29.14 3.36,-2.04 17.78,31.03 -1.54,3.18 -10.6,3.5 -2.38,11.52 -15.89,5.32 -1.74,-18.29 m 80.64,-8.52 -14.94,-4.18 -1.15,-1.58 -2.38,-8.84 20.5,-11.59 -11.66,-17.73 21.99,-9.6 0.38,-1.01 7.82,-7.68 8,-0.52 6.73,6.39 1.23,12.31 -5.92,7.48 1.39,22.2 -19.21,-4.27 -12.52,18.49 -0.26,0.13 m -54.76,-37.29 6.46,-27.1 -23.11,-6.76 -1.4,-22.99 15.26,-4.17 5.74,2.65 5.07,21.27 -2.39,10.5 12.99,2.66 18.8,12.21 1.2,3.13 -15.9,19.24 -22.72,-10.64 m 111.03,-81.66 19.52,-13.89 0.05,-1.13 -16.55,-26.93 -2.82,-14.55 1.33,-5.14 12.67,-3.63 2.66,0.89 53.93,-5.78 -19.53,43.35 4.42,5.12 -0.1,11.01 -27.91,11.52 -2.33,13.94 0.12,0.48 -4.15,7.01 -24.06,4.7 3.95,-24.63 -1.2,-2.34"
           id="path266" />
        <path
           fill-rule="evenodd"
           class="border FR"
           style="fill:#4e7aac;fill-opacity:0.3;stroke:#4e7aac;stroke-width:2px"
           d="m -30.63,-162.97 0.27,-7.11 4.54,-2.98 -4.27,-8.53 13.69,-5.09 0.02,-0.61 -19.32,-9.96 12.8,-8.63 0.37,-5.42 3.77,-4.83 8.36,2.8 6.24,-3.28 11.51,3.98 0.97,1.32 9.17,3.06 0.1,0.15 0.99,3.7 -12.38,16.83 1.14,8.5 -19.24,4.85 -0.96,1.83 -0.6,9.74 -17.17,-0.32"
           id="path267" />
        <path
           fill-rule="evenodd"
           class="border RC"
           style="fill:#5d8593;fill-opacity:0.3;stroke:#5d8593;stroke-width:2px"
           d="m -454.69,-176.19 1.9,33.14 -2.6,4.8 -8.27,6.17 6.59,14.5 -12.83,20.33 -27.6,8.52 -5.55,-9.68 -13.39,-13.19 22.49,-42.25 -18.31,-15.91 6.97,-36.74 2.54,-1.61 18.27,-54.26 2.48,-0.58 7.64,-5.64 27.73,-1.21 14.66,24.05 -12.02,31.62 -8.74,1.24 -12.71,20.13 2.6,12.38 8.15,4.19"
           id="path268" />
        <path
           fill-rule="evenodd"
           class="border CF"
           style="fill:#5f60a5;fill-opacity:0.3;stroke:#5f60a5;stroke-width:2px"
           d="m -380.18,74.51 -6.33,8.19 -3.29,0.36 -9.95,10.67 -1.41,5.57 -19.82,3.4 1.94,34.89 0.42,0.85 -76.42,3.41 10.88,-63.25 2.8,-1.26 4.18,-5 7.9,-26.94 9.93,-7.36 17.9,4.11 8.11,-3.05 22.15,6.97 1.66,3.81 7.88,5.21 1.93,-0.73 15.45,3.08 4.09,17.07"
           id="path269" />
        <path
           fill-rule="evenodd"
           class="border C"
           style="fill:#757c82;fill-opacity:0.3;stroke:#757c82;stroke-width:2px"
           d="m -39.32,-239.14 -1.48,11.91 -16.84,-3.23 -1.76,-8.29 17.51,-3.51 2.57,3.12 m 178.71,-6.14 4.57,-19.3 14.67,4.11 -0.27,21.28 -15.71,-1.06 -3.26,-5.03 m 20.66,-42.39 -19.95,11.11 -11.93,-9.69 -0.61,-1.12 15.92,-19.22 5.09,1.69 11.48,17.23"
           id="path270" />
        <path
           fill-rule="evenodd"
           class="border JF"
           style="fill:#864c9e;fill-opacity:0.3;stroke:#864c9e;stroke-width:2px"
           d="m 570.83,-484.38 -24.51,16.25 -26.3,-9.33 -3.2,-25 23.04,-31.85 0.19,-1.86 88.33,-3.69 -27.72,19.71 -0.32,1.02 15.04,32.23 -9.24,17.22 -35.31,-14.7"
           id="path271" />
        <path
           fill-rule="evenodd"
           class="border CDS"
           style="fill:#8690a3;fill-opacity:0.3;stroke:#8690a3;stroke-width:2px"
           d="m -35.21,-500.7 38.9,-25.43 0.65,0.4 2.66,58.88 -12.83,5.89 -29.38,-39.74"
           id="path272" />
        <path
           fill-rule="evenodd"
           class="border CI"
           style="fill:#949d93;fill-opacity:0.3;stroke:#949d93;stroke-width:2px"
           d="m -143.45,-525.42 -43.43,-1.89 -3.23,4.54 -39.44,-8.32 -4.04,-7.61 89.92,13.28"
           id="path273" />
        <path
           fill-rule="evenodd"
           class="border CSV"
           style="fill:#a3d451;fill-opacity:0.3;stroke:#a3d451;stroke-width:2px"
           d="m -35,-216.48 -3.86,-7.17 -0.01,-0.49 18.81,-3.1 0.68,10.48 -3.75,4.8 -11.87,-4.52 m -12.59,-42.77 -16.88,8.27 -2.56,4.06 -15.08,-10.07 -1,-15.59 -14.63,7.85 -12.72,-14.92 0.06,-3.38 15.17,-0.99 12.97,9.43 13.48,-4.49 0.51,-0.53 11.89,5.71 8.79,14.65 m -71.72,-99.72 -6.03,9.81 -0.21,0.23 -16.08,-2.75 -2.22,-9.98 0.61,-2.78 6.63,-4.7 16.1,5.43 6.35,-11.13 10.4,-2.69 0.3,0.17 6.45,8.36 -8.79,13.54 -13.51,-3.51"
           id="path274" />
        <path
           fill-rule="evenodd"
           class="border FWL"
           style="fill:#a55ea6;fill-opacity:0.3;stroke:#a55ea6;stroke-width:2px"
           d="m -47.02,29.26 3.02,10.84 -0.21,3.63 1.44,3.1 9.07,8.4 0.66,9.84 0.67,0.76 3.53,2.03 19.28,-7.54 2.23,7.26 9.19,1.86 1.63,2.93 -2.82,10.43 3.59,0.93 14.51,-9.79 0.79,0.23 5.3,2.67 2.97,3.85 1.13,8.17 -5.05,9.65 1.96,3.22 -1.51,15.61 -1.9,1.63 -440.54,18.37 -2.11,-34.02 19.7,-3.28 1.61,-5.83 9.53,-10.25 3.33,-0.39 6.61,-8.54 12.89,-4.02 4.5,-10.79 16.3,4.73 1.97,3.38 19.01,-0.08 0.35,-15.06 5.3,-6.58 12.29,16.47 8.4,-1.24 2.19,-25.35 13.42,-10.46 1,1.24 35.43,8.33 1.01,5.41 16.87,4.23 8.51,-6.98 0.97,-5.99 17.63,4.14 0.95,1.54 10.02,2.66 10.91,-7.04 -1.62,-9.39 6.26,-6.05 16.86,4.21 5.32,-6.98 0.01,-6.49 3.64,-5.7 15.12,-2.06 5.63,17.53 2.64,0.73 16.01,-15.56 7.2,3.42 9.11,-10.29 10.29,1.04 2.01,8.16 8.44,0.71 1.55,4.95 3.74,1.58 1.48,11.13 3.72,0.23 11.33,2.62 0.33,-0.08 3.4,1.98"
           id="path275" />
        <path
           fill-rule="evenodd"
           class="border CJF"
           style="fill:#abd375;fill-opacity:0.3;stroke:#abd375;stroke-width:2px"
           d="m -39,-224.93 -0.95,-2.03 1.46,-11.97 12.72,-1.91 5.7,13.12 0.13,-0.23 -19.06,3.02 m -27.22,-21.29 0.01,-0.21 2.41,-3.81 16.75,-8.39 0.94,0.26 3.22,3.58 0.76,11.75 -17.6,3.69 -6.49,-6.87 m -2.55,-34.12 0.02,-0.03 -0.52,0.41 -12.83,4.38 -12.85,-9.4 -15.65,1.13 -2.24,-2.08 -15.12,0.68 -8.83,-9.92 13.01,-16.54 -22.25,-7.94 -1.78,-9.62 0.14,-0.52 -2.42,-8.78 -1.93,-1.04 -12.52,-17.59 -1.32,-0.59 -8.92,2.2 -3.57,-3.04 -14.64,-1.06 -2.96,-24.34 -0.11,-0.12 -3.84,-7.68 12.1,-16.58 -18.5,-26.85 -17.66,-9.64 2.04,-19.03 4.9,-2.34 11.6,-10.5 18.74,-32.51 -2.76,-12.92 3.12,-4.27 43.1,-9.9 13.49,16.79 -13.61,22.89 2.41,7.54 -2.45,24.76 3.9,3.61 21.32,3.61 0.71,0.43 5.52,8.63 11.74,5.6 0.02,3.5 6.97,15.92 -3.48,9.06 3.73,11.31 4.06,2.16 3.19,11.17 6.7,5.86 2.85,4.84 -0.62,4.15 7.22,10.33 -15.83,14.48 -0.77,3.55 3.89,3.85 8.96,2.3 3.09,6.25 0.09,4.98 -12.36,14.22 12.86,5.26 11.6,-0.34 1.25,2.05 2.04,12.11 -14.04,15.16 m -50.17,-77.71 -5.64,9.54 -0.71,0.54 -17.03,-2.98 -2.53,-10.71 0.78,-3.34 7.32,-5.13 15.88,5.49 6.1,-10.99 11.11,-2.89 0.84,0.39 6.81,9.09 -9.42,14.51 -13.51,-3.52"
           id="path276" />
        <path
           fill-rule="evenodd"
           class="border CGB"
           style="fill:#bae6fb;fill-opacity:0.3;stroke:#bae6fb;stroke-width:2px"
           d="m 36.85,-217.92 -8.32,6.3 -10.32,2.83 0.07,0.05 6.13,-17.41 -7.61,-5.91 3.69,-11.36 4.05,-0.17 5.53,-8.02 -0.46,-22.1 4.19,-2.59 1.48,-5.85 3.82,-5.29 -4.4,-20.62 27,-12.08 0.25,-1.07 -30.33,-6.27 2.16,-14.1 1.64,-1.54 -0.85,-19.98 8.78,-6.1 0.83,-1.8 -0.29,-5 13.35,-18.93 0.18,-0.17 0.02,-10.75 -16.76,-11.96 -1.52,-4.41 10.65,-10.31 -10.71,-36.28 3.47,-1.53 5.3,-5.59 32.45,7.25 14.93,-36.25 17.62,33.56 -1.54,2.95 0.19,21.84 -0.2,0.23 -0.01,22.75 9.64,14.62 -17.86,14.32 12.68,13.18 2.37,5.5 -10.86,18.34 0.25,-0.11 -6.01,-2.83 -16.16,4.58 1.44,24.21 23.03,6.63 -6.45,26.52 -7.01,4 -3.85,4.76 -3.94,2.28 -9.06,29.13 -0.5,0.25 -1.58,5.15 -16.7,13.89 7.4,11.15 0.1,-0.28 -13.56,3.94 -1.11,1.68 -6.33,1.09 -4.14,7.05 -0.08,0.05 -6.17,-3.42 m -71.75,-227.69 -20.53,-34.56 -0.72,-7.76 18.81,-13.26 -19.03,-40.48 40.03,-7.51 19.52,22.58 -39.37,25.71 29.73,40.37 -14.6,13.87 -13.84,1.04"
           id="path277" />
        <path
           fill-rule="evenodd"
           class="border CWF"
           style="fill:#d9743d;fill-opacity:0.3;stroke:#d9743d;stroke-width:2px"
           d="m -18.51,-216.92 -0.66,-10.5 0.1,-0.25 -6.22,-14.04 -13.37,1.96 -2.61,-3.17 -0.7,-12.26 -3.62,-4.04 -1.21,-0.3 -8.91,-15.12 -12.17,-5.68 -0.01,0.45 14.11,-15.34 -2.06,-12.76 -1.72,-2.58 -11.88,0.24 -12.08,-4.56 12.34,-13.58 -0.06,-5.57 -3.44,-6.79 -9.08,-2.39 -3.43,-3.27 0.68,-2.76 15.96,-14.87 -7.24,-10.67 0.62,-4.11 -3.06,-5.29 -6.63,-5.75 -3.25,-11.27 -4.08,-2.17 -3.49,-10.64 3.48,-9.12 -6.99,-16.11 -0.16,-3.82 -11.91,-5.81 -5.49,-8.6 -1.07,-0.65 -21.22,-3.56 -3.41,-3.08 2.51,-24.5 -2.41,-7.33 13.37,-22.6 22.51,-0.44 29.52,-22.36 2.14,-3.34 17.69,3.8 18.82,40.07 -18.75,13.1 0.67,8.49 21.01,35.14 14.72,-1.01 14.97,-14.33 13.17,-6.03 3.91,0.77 26.96,-3.28 10.48,35.82 -10.66,10.32 1.7,5.24 16.67,11.83 v 9.79 l 0.01,-0.07 -13.63,19.39 0.26,5.09 -0.61,1.35 -8.91,6.3 0.83,20.03 -1.61,1.46 -2.09,15.15 30.22,5.84 -0.05,0.24 -27.16,12.31 4.31,20.86 -3.74,5.07 -1.39,5.7 -4.26,2.69 0.38,22.3 -5.06,7.42 -4.17,0.25 -4.04,12.46 7.61,5.89 -5.89,16.76 -8.65,-3.01 -0.97,-1.32 -12.18,-4.16 -6.24,3.28 -8.03,-2.6"
           id="path278" />
        <path
           fill-rule="evenodd"
           class="border OA"
           style="fill:#dcbf97;fill-opacity:0.3;stroke:#dcbf97;stroke-width:2px"
           d="m 415.4,-131.53 -2.6,-27.49 -6.03,-5.43 -4.06,-14.06 -0.04,0.07 26.76,-7.65 0.71,-20.07 8.27,-3.09 1,-9.92 20.24,-9.72 -0.22,-2.44 -16.21,-22.89 0.26,-7.21 47.73,-2.28 3.46,5.79 2.28,2.42 10.52,7.4 -8.56,34.38 13.74,19.73 13.74,7.65 17.13,-4.21 11.04,3.07 8.54,9.23 50.18,-3.01 6.63,22.03 2.96,4.87 -17.95,33.63 -0.36,7.95 8.37,10.36 -1.12,17.34 -2.87,2.1 -43.34,-3.56 -1.9,-1.55 -1.23,-1.53 -32.4,12.68 -0.5,0.97 -16.36,7.27 -4.89,-0.33 -10.43,-19.77 -11.36,0.64 -4.55,-2.4 -4.98,-10.25 -19.41,9.78 -2.13,-0.75 -11.04,1.56 -6.85,-17.33 -15.83,-6 -1.33,-1.85 -0.66,-10.63 -4.35,-5.5"
           id="path279" />
        <path
           fill-rule="evenodd"
           class="border DC"
           style="fill:#ec2027;fill-opacity:0.3;stroke:#ec2027;stroke-width:2px"
           d="m 4.19,-7.61 -5.28,-5.39 1.88,-4.16 -3.49,-9.45 8.39,-6.01 3.53,0.33 3.84,-4.58 1.03,-10.11 9.44,-3.4 2.31,-4.24 -11.2,-11.98 -0.27,-1.93 -2.29,-3.31 -16.39,-2.11 -3.35,3.18 -0.01,0.18 -13.12,11.97 -2.57,0.92 -1.92,7.62 -1.47,1.82 -1.82,-0.52 -12.54,-4.82 4.43,-10.17 7.27,0.02 6.46,-10.48 -6.82,-9.01 -9.43,1.24 -0.08,-9.94 2.99,-3.46 -5.47,-12.84 0.51,-0.1 14.66,4.96 5.42,-3.72 -0.62,-14.36 2.57,-0.82 6.87,-5.38 -0.04,-9.7 10.38,-4.31 -1.19,-10.84 12.52,-0.84 6.39,-17 -24.44,12.53 -2.86,-1.51 -0.32,-0.6 -0.71,-2.4 0.72,-9.79 0.63,-1.32 19.44,-5.06 -1,-8.82 12.4,-16.89 -1.09,-3.85 10.49,-2.66 7.95,-6.21 6.03,3.43 0.79,-0.28 4.07,-7 6.31,-1.07 1.16,-1.72 13.66,-4.03 0.08,-0.19 11.11,-5.72 0.05,-0.15 16.54,-5.45 2.38,-11.52 10.03,-3.32 8.19,12.28 16.99,-3.62 4.32,0.51 3.51,5.4 16.85,0.97 0.46,-22.09 0.45,-0.14 12.24,-18.32 19.47,4.11 -1.07,-22.66 5.93,-7.51 -1.35,-12.49 8.31,-0.78 11.54,-13.28 -1.57,-7.81 -6.39,-9.26 5.35,-3.79 24.79,-4.7 4.55,-7.66 -0.1,-0.67 2.12,-13.3 27.95,-11.58 0.21,-11.92 -4.37,-4.92 19.31,-43.12 1.85,-0.81 4.29,-4.39 33.08,9.61 6.54,10.22 6.24,3.78 15.44,4.09 25.46,-7.25 15.4,16.73 -15.21,33.2 0.44,1.34 19.54,23.32 -2.17,3.74 -3.46,17.2 39.96,22.08 4.96,0.75 11.66,-2.51 1.8,1.65 -11.51,53.97 1.52,1.94 -0.39,7.7 16.23,22.98 0.28,1.59 -20.18,9.63 -0.97,9.88 -8.29,3.12 -0.69,20.04 -26.63,7.5 -0.29,0.62 4.2,14.66 5.99,5.35 2.56,27.41 4.34,5.48 0.71,10.17 -21.8,7.87 -6.79,8.74 -8.79,-4.02 -1.97,-4.25 -25.17,-7.61 -0.18,15.92 -10.68,10.97 -14.15,-4.7 -6.47,-5.56 -19.69,13.8 -0.03,7.34 -13.16,10.63 -0.95,-0.22 -13.76,3.28 -1.95,-1.92 -2.82,-0.53 -20.87,1.72 -1.49,3.18 -0.89,0.63 -16.78,-2.83 -4.89,-6.61 -10.28,4.38 -2.4,14.22 -3.22,2.93 -1.69,4.93 -10.05,-3.26 -15.17,7.18 5.3,13.24 -0.56,3.75 -23.1,-1.83 -1.84,1.43 -9.1,1.26 -8.77,-10.47 -18.31,10.73 -6.03,-2.6 -3.78,-12.69 -15.34,-4.14 -0.77,-0.62 -6.11,-2.15 -12.11,17.04 -5.2,-2.02 -5.26,-0.25 -3.77,0.67 -5.73,7.4 -9.47,-1.12 -2.52,11.93 -8.54,6.34 -6.49,-5.08 -6.9,3.92 L 22.99,5.37 13.57,-7.66 12.89,-7.68 6.78,-5.9 4.19,-7.61 m 136.43,-325.92 -1.3,-11.39 7.51,-1.95 13.04,2.11 -7.38,16.1 -3.03,1.33 -8.84,-6.2"
           id="path280" />
        <path
           fill-rule="evenodd"
           class="border CS"
           style="fill:#f3f3f3;fill-opacity:0.3;stroke:#f3f3f3;stroke-width:2px"
           d="M 1.89,4.46 -4.53,2.5 3.94,-6.73 6.26,-5.18 5.92,3.3 1.89,4.46"
           id="path281" />
        <path
           fill-rule="evenodd"
           class="border FCF"
           style="fill:#fed600;fill-opacity:0.3;stroke:#fed600;stroke-width:2px"
           d="m 6.78,3.43 0.32,-8.53 5.95,-1.6 0.1,-0.06 9.93,13.12 6.65,-10.2 6.13,-3.64 6.54,5.08 9.4,-6.8 2.26,-11.65 9.27,1.22 5.86,-7.46 3.32,-0.53 5,0.23 5.69,2 12.12,-17.04 5.32,2.06 0.81,0.64 15.09,3.97 3.74,12.64 6.83,2.93 18.08,-10.75 8.58,10.42 9.85,-1.27 1.74,-1.4 23.42,1.67 0.94,-4.65 -5.36,-12.76 14.31,-6.55 10.42,3.16 2.08,-5.27 3.27,-3.01 2.31,-14.09 9.23,-4.02 4.62,6.49 17.52,2.96 1.44,-0.96 1.31,-3.01 20.24,-1.55 2.42,0.43 2.14,2 14.04,-3.26 1.17,0.21 13.82,-11.17 0.02,-7.31 18.74,-13.27 6.04,5.43 14.88,4.8 11.36,-11.56 -0.08,-15.55 23.85,7.62 1.93,4.21 9.73,4.27 7.14,-8.9 21.48,-7.92 1.34,1.99 15.74,5.92 7.05,17.48 11.44,-1.42 2.3,0.75 18.89,-9.91 4.7,10.07 5.07,2.69 11.08,-0.75 10.37,19.74 5.61,0.47 16.88,-7.52 0.48,-0.95 31.45,-12.47 0.79,1.26 2.25,1.79 43.99,3.59 3.03,-2.32 27.88,21.49 -29.56,167.43 -510.77,8.49 -0.03,-10.63 3.8,-0.74 5.76,-8.21 -7.15,-14.91 -4.02,1.43 -1.84,2.61 -15.76,8.42 -1.17,-1.36 -15.09,3.21 -1.63,-0.46 -0.81,-2.93 7.47,-7.51 -2.84,-6.98 -0.07,0.17 14.74,-5.18 0.1,-2.23 11.16,-6.68 1.48,-5.48 -0.23,-1.71 0.68,-2.35 0.37,-3.58 18.9,-1.09 0.06,-4.24 -5.91,-7.83 -4.95,-1.9 -7.09,3.92 -2.04,9.35 -11.06,-3.67 -1.51,-3.66 5.54,-9.05 -0.18,-0.64 11.41,-7.52 -3.62,-9.59 13.36,-6.83 -7.27,-13.51 -7.63,2.15 -7.28,14.53 0.34,1 -1.74,2.31 -3.77,9.9 -9.76,0.05 -1.01,14.64 0.14,-0.08 -5.69,-0.58 -0.39,0.28 -11.71,2.77 -0.69,-3.47 -3.72,-4.75 5.19,-5.99 L 52.58,23.48 57.2,14.75 56.88,13.88 61.82,3.14 61.43,2.08 43.51,0.72 41.17,10.4 38.44,11.35 22.95,5.4 22.1,6.25 10.83,6.46 8.88,5.54 6.78,3.43 m 373.56,-439.09 6.42,-27.07 10.55,-8.29 23.73,1.89 12.93,18.02 -11.81,33.89 -5.08,2.82 -21.22,-4.43 -15.52,-16.83"
           id="path282" />
        <path
           fill-rule="evenodd"
           class="nebula"
           data-name="Coalsack Nebula"
           d="m 106.3,-479.3 c 1.9,-0.6 4.3,0 5.5,-1.3 2.5,-2.6 3,-6.6 5.2,-9.7 1.4,-1.9 4.8,-2.9 5,-4.7 0.2,-1.6 -4,-3.3 -3.8,-5 0.5,-2.5 5.3,-4.5 5.8,-7.1 0.3,-1.7 -2.7,-3.2 -3.2,-5.1 -0.7,-2.5 0.9,-5.6 -0.1,-7.5 -0.6,-1.3 -3.3,-0.6 -4.6,-1.7 -1.8,-1.5 -2.9,-3.6 -4.2,-5.7 -1.4,-2.2 -1.4,-5.3 -3.3,-6.6 -2.3,-1.5 -5.6,-1.4 -8.6,-1.6 -2.5,-0.1 -4.8,0.6 -7.3,0.6 -2.1,0.1 -3.9,-0.6 -5.9,-0.2 -1.7,0.2 -3.1,1 -4.5,2 -1.6,1.2 -2.7,2.7 -4,4.2 -2.6,2.7 -5.2,4.9 -7.1,8 -1,1.5 -0.8,3.3 -1.2,5 -0.5,2.4 -1.1,4.4 -1.5,6.9 -0.4,2.3 -1.2,4.6 -0.7,6.8 0.4,1.6 2.3,2.5 3.3,3.9 1,1.5 2,2.7 2.5,4.4 0.9,2.6 0,5.9 1.5,8 1.4,1.9 4.5,2.1 6.6,3.6 1.8,1.3 2.6,3.6 4.5,4.4 3,1.2 6.3,1 9.6,1.1 1.6,0 2.9,-0.4 4.4,-0.8 2.2,-0.6 4,-1.3 6.1,-1.9"
           id="path283" />
        <path
           fill-rule="evenodd"
           class="nebula"
           data-name="Lupus Cloud"
           d="m -630.9,-101.7 c -3.8,2 -7,4.1 -10,7 -1.5,1.5 -1.9,3.6 -3.1,5.5 -2.4,3.9 -4.8,7 -7.1,11 -1.9,3.4 -3.7,6.4 -4.8,10.2 -1.8,6.3 -4.2,12.6 -3.4,18.4 0.5,3.1 6,3.9 7,6.9 1.6,4.8 -1.6,11.3 0.6,15.5 1.7,3.3 6.9,3.8 10.6,6 3.5,2.1 6.2,4.6 10,6.2 4.8,2.1 9.6,2.4 14.5,4.2 1.4,0.5 2.2,2 3.6,2.5 4,1.3 7.7,2.7 11.8,2.4 5.4,-0.5 10.1,-2.7 15.4,-4.6 3.1,-1.1 5.7,-2.2 8.5,-3.8 2.7,-1.5 4.9,-3 7.2,-5 3.4,-2.8 7,-5 9.1,-8.6 1.9,-3.1 1,-6.9 2.2,-10.5 1.3,-4 3.9,-7.1 5.1,-11.2 1.4,-4.5 2.3,-8.6 2.4,-13.3 0.1,-4.5 -1,-8.4 -1.8,-12.8 -0.9,-4.8 -1.1,-9.3 -3.2,-13.4 -1.6,-3.3 -4.2,-6.1 -7.4,-7.8 -4.1,-2.2 -9.1,-1.5 -13.4,-3.5 -3.5,-1.7 -5.3,-5.7 -8.8,-6.9 -4,-1.3 -8.2,-0.3 -12.7,-0.3 -4.8,0 -8.9,0.7 -13.7,0.5 -1.2,-0.1 -2.2,-1.4 -3.3,-1.1 -5.4,1.6 -10.2,3.8 -15.3,6.5"
           id="path284" />
        <path
           fill-rule="evenodd"
           class="nebula"
           data-name="Aquila Rift"
           d="m -923.7,-368.1 c -1.6,2.4 0.2,5.8 -0.9,8.5 -1.2,3 -4.1,4.8 -5.7,7.7 -1.4,2.6 -1.7,5.3 -2.9,8 -1.3,3 -2.6,5.4 -4.1,8.2 -1.7,3.3 -3.1,6.1 -4.9,9.2 -1.4,2.6 -2.3,5.1 -4.3,7.3 -4.5,5.1 -11.1,8.9 -14.1,13.6 -0.7,1.1 3,1.5 3.5,2.8 0.7,1.9 -0.9,4.7 -0.2,6.4 0.3,0.9 2.3,0.4 3.2,1.1 1,0.9 1.8,2 2.3,3.3 0.7,1.9 1.1,3.8 1,5.8 -0.1,2.5 -1.9,4.8 -1.7,7.2 0.2,1.7 1.6,3.1 2.7,4.5 1.2,1.7 4.5,2.9 3.9,4.6 -1.8,4.7 -7.6,8.6 -10.9,13.8 -2.4,3.7 -3.3,7.5 -5.2,11.6 -0.8,1.6 -2,2.8 -2.4,4.5 -0.4,1.5 0.3,3.1 -0.1,4.6 -1,4.1 -3.4,7.5 -3.9,11.7 -0.5,3.2 1.3,6.1 1.1,9.4 -0.1,1.9 -1.3,3.5 -1.9,5.3 -1.6,4.6 -3.4,8.6 -4.3,13.2 -0.3,1.9 0.4,3.6 0.7,5.5 0.4,1.9 0.9,3.5 1.3,5.4 0.6,3.4 0.8,6.3 1.5,9.6 0.4,2.1 1.6,3.7 1.7,5.8 0.1,4.2 0.2,8.2 -1.1,12.1 -2,5.7 -6.2,9.9 -8.6,15.6 -1,2.4 -0.6,5 -1.3,7.6 -1,3.2 -3.2,5.7 -3.6,8.9 -0.4,4.6 0.4,9.1 1.3,13.6 0.2,0.9 1.5,1 1.8,1.8 1.2,3.8 0.6,8 2.4,11.4 1.1,2.3 3.8,3.3 5.8,5.1 1.5,1.2 3.3,2 4.1,3.6 1,2.4 -0.6,7.1 1,7.7 2.2,0.9 6.3,-2.4 9.7,-3.4 3.7,-1.1 9.8,-4.1 10.6,-2.4 1,2 -3.6,8.3 -5.2,13 -1.3,3.7 -2,7.1 -3,10.9 -1.6,5.8 -4.8,10.8 -4.5,16.5 0.3,5.1 3.6,9.4 6.1,14.1 1,2 2.9,3.1 3.9,5 1,2 0.1,5 1.7,6.2 2.2,1.7 6.1,0.8 8.9,2.2 2.3,1 3.8,3 5.7,4.7 2.3,2 5.2,3.4 6.5,5.9 1.2,2.4 0.8,5.3 0.8,8.2 0,4.6 -1.5,8.8 -0.7,13.2 0.5,3.2 2.7,5.6 4.6,8.3 1.1,1.5 2.9,2.2 3.9,3.8 1.5,2.1 3.5,4.2 3.4,6.7 -0.2,5.1 -3,9.7 -4.4,15 -1.8,7 -7,17.1 -4.6,20.2 2,2.7 12.4,-5.3 17,-3.6 3.8,1.4 3.7,9.3 7,12.5 1.8,1.7 5,0.6 7.6,1.4 4,1.3 7.4,2.8 11.3,4.4 2.3,1.1 4.6,1.8 6.5,3.4 3.1,2.6 5.3,5.4 7.7,8.6 2,2.4 3.3,4.8 4.9,7.4 2,3.2 2.6,7.3 5.4,9.4 2.6,2 6.7,1.1 10,2.4 3,1.1 5,4.1 8,4.4 5.6,0.5 10.8,-2.2 16.6,-2.1 2.9,0 5.4,2.8 8.2,2.3 4.5,-0.6 7.9,-5.2 12.4,-5.5 4.5,-0.3 8.5,3.1 13.2,3.7 5.5,0.7 11.9,-2.4 15.9,0.2 4.3,2.8 4.2,11.5 7.8,15 1.6,1.6 5,-1 7.3,-0.4 1.7,0.4 2.9,2.2 4.4,3.4 1.5,1.3 2.7,2.8 4.4,3.8 2.1,1.3 4.8,1.4 6.6,3 2.2,1.9 3.1,4.8 4.9,7.2 3,3.8 5.9,6.7 8.8,10.4 2.3,3 3.6,6.1 6.2,8.8 2.8,3 5.7,5.4 9,7.8 1.4,0.9 2.9,1.8 4.5,1.8 2.8,-0.1 5.6,-0.9 8.1,-2.4 5.8,-3.5 9.8,-9.4 15.7,-12.1 2.6,-1.2 6.3,2.4 8.7,1 4.5,-2.5 6.6,-8.6 11,-12.2 4.9,-4.1 10.1,-6.5 15.6,-9.9 6.4,-3.8 11.8,-7.2 18.4,-10.6 6.1,-3.1 12.2,-4.6 17.8,-8.1 2.1,-1.3 2.6,-4 4.3,-5.8 1.5,-1.7 3.2,-2.9 5,-4.4 2,-1.6 4.4,-2.8 5.9,-4.6 0.4,-0.4 -1.1,-1.4 -0.6,-1.8 3.4,-3.8 7.6,-6.8 11.8,-10.3 1.1,-1 2.3,-1.6 3.3,-2.7 4.9,-5.1 9.1,-9.6 13.6,-15.1 2.7,-3.4 4.6,-6.6 6.9,-10.2 1,-1.6 1.6,-3.1 2.6,-4.7 1.1,-1.9 2.2,-3.5 3.3,-5.4 0.2,-0.5 0.3,-1 0.6,-1.5 0.6,-1 1.2,-1.8 1.8,-2.8 1.5,-2.2 3.1,-3.9 4.4,-6.3 1.5,-2.7 1.9,-5.5 3.4,-8.3 2.4,-4.3 6.2,-7.6 7.8,-11.9 0.7,-1.7 -1.6,-3.6 -1.3,-5.4 0.3,-2 1.9,-3.6 3,-5.5 1.1,-1.8 2,-3.4 3.1,-5.1 1.9,-3.1 3.7,-5.7 5.5,-8.8 1.5,-2.7 3.4,-4.9 4,-7.8 0.7,-2.7 -1.8,-5.9 -0.4,-8.3 3.8,-6.5 11.8,-10.4 15.5,-16.9 1.4,-2.7 -1,-6 -0.9,-9.2 0.3,-4.1 1.6,-7.5 2,-11.6 0.2,-2.3 -0.6,-4.4 -0.2,-6.7 0.7,-4.7 2.1,-8.6 3.2,-13.2 0.9,-3.4 2.1,-6.3 2.3,-9.6 0.2,-2.1 -1.5,-3.9 -1.2,-5.9 0.4,-2.8 2.6,-5 3.4,-7.8 0.5,-1.9 -0.6,-4.1 0.2,-5.9 1.5,-3.3 4.8,-5.4 6.3,-8.7 0.7,-1.5 0.2,-3.3 -0.1,-5 -0.3,-1.4 -1.4,-2.5 -1.5,-3.9 -0.1,-1.4 1.2,-2.7 1,-4 -0.1,-0.8 -1.3,-1.3 -1.8,-2.1 -0.8,-1 -1.6,-2 -1.9,-3.2 -0.5,-2 -0.6,-3.9 -0.4,-5.9 0.3,-2.9 1.2,-5.4 1.9,-8.2 0.4,-1.6 0.4,-3.1 1.2,-4.5 2.3,-4 6.4,-6.8 7.5,-10.9 0.9,-3.2 -0.3,-7 -1.8,-10 -1.6,-3.3 -5.3,-5 -7,-8.3 -1.8,-3.5 -2.8,-7.3 -2.9,-11.2 -0.1,-4.8 2.9,-9.3 2.4,-13.8 -0.3,-2.6 -2.5,-4.9 -4.7,-6.6 -2.7,-2 -6.5,-1.9 -9.2,-3.9 -2.9,-2.1 -5.2,-4.7 -6.9,-7.8 -1.4,-2.4 -2.1,-5 -2.1,-7.8 0,-4.5 2.4,-8.7 2.1,-13.1 -0.2,-2.8 -3.3,-4.9 -3.7,-7.7 -0.4,-3.4 1.2,-6.5 1.6,-10 0.3,-3.8 -0.6,-7.4 0.3,-11 0.6,-2.2 2.5,-3.6 3.8,-5.6 1.2,-1.8 2.3,-3.2 3.3,-5 0.6,-1 0.9,-2 1.4,-3.1 1.6,-3.2 4.7,-6.5 4.5,-9.3 -0.1,-1.9 -3.6,-2.5 -5.4,-4.1 -2.4,-2.3 -4,-4.7 -6.4,-7 -2.1,-1.8 -3.7,-3.9 -6.2,-4.9 -4.3,-1.8 -10.5,-0.3 -13.3,-3.2 -2.7,-2.8 -3.2,-8.8 -2.3,-13.1 1.5,-7.1 8.5,-13.2 9.2,-19.6 0.3,-2.6 -5.2,-3.4 -6.5,-6 -1.7,-3.2 -0.2,-7.9 -2.1,-10.8 -1.5,-2.2 -4.8,-2.7 -7.6,-3.7 -3,-1.1 -6.6,-0.5 -8.9,-2.3 -2.3,-1.9 -2.2,-5.6 -4,-8.2 -1.7,-2.6 -3.6,-4.6 -6,-6.4 -1.7,-1.4 -3.6,-2.5 -5.7,-2.9 -3.3,-0.6 -7.4,1.5 -10,0 -2.4,-1.4 -2.4,-5.7 -4.2,-8.3 -1.8,-2.6 -3.9,-4.5 -6.1,-6.7 -2.9,-3 -7.2,-4.7 -8.7,-8.3 -1.4,-3.3 1.5,-7.7 0.6,-11.4 -0.9,-3.9 -3,-7.6 -5.9,-10.2 -2.3,-2.2 -7.7,-1.2 -9,-3.8 -2.1,-3.9 -1.3,-9.8 -0.6,-14.9 0.9,-6.9 5.4,-12.9 5.3,-19.6 -0.1,-4.4 -3.3,-8.1 -5.8,-12.1 -2,-3.1 -3.9,-7.6 -7,-8 -5.8,-0.6 -12,4.1 -18.6,5.2 -6.1,0.9 -11.7,-0.4 -17.8,0.6 -6.5,1.1 -11.7,4.3 -18.1,5.1 -4,0.5 -7.7,-0.5 -11.7,-1.4 -3.5,-0.8 -6.9,-1.4 -9.8,-3.3 -1.8,-1.2 -1.6,-4.9 -3.5,-5.4 -4.9,-1.2 -10.5,1 -16,0.7 -3.1,-0.2 -5.5,-1.4 -8.5,-2.2 -1.9,-0.5 -3.5,-1.8 -5.3,-1.6 -2.6,0.4 -4.6,2.9 -7.3,3.4 -3,0.6 -5.7,-0.2 -8.8,-0.2 -2.4,0 -4.7,0.6 -6.7,0 -1.1,-0.3 -1.7,-1.5 -2.3,-2.5 -0.7,-1.1 -0.7,-3.2 -1.5,-3.5 -1,-0.3 -2.4,1.6 -3.7,1.8 -0.9,0.1 -1.8,-1.4 -2.7,-1 -11.9,4.9 -22.7,9.5 -34,16 -6.9,3.9 -13,7.9 -18,13.9 -6.1,7.4 -9.5,15.6 -13.6,24.4 -2.1,4.7 -0.8,11.6 -4.2,14.2 -3.9,2.8 -10.8,1.6 -16.5,1.3 -5.6,-0.2 -10.3,-1.7 -15.9,-2.8 -3.1,-0.6 -5.6,-1.5 -8.7,-1.9 -3.9,-0.6 -8.5,-2 -11.2,-1 -1.2,0.4 0.4,3.2 0,4.7 -0.8,2.6 -2.3,4.5 -3.5,6.9 -0.8,1.5 -1.2,3 -2.1,4.4 -0.5,0.6 -1.6,0.7 -1.9,1.5 -1.1,3.1 -1.7,6.2 -2.3,9.5 -0.3,2.4 0.6,4.9 -0.3,6.8 -0.5,1.4 -2.5,1.6 -3.6,2.6 -2.3,2.2 -4,4.3 -6.2,6.6 -5.6,6 -11.8,10.6 -16.2,17.3"
           id="path285" />
        <path
           fill-rule="evenodd"
           class="nebula"
           data-name="Dark Nebula"
           d="m -129.8,-423.1 c -0.7,-1.5 -0.6,-3.5 -1.7,-4.6 -1.2,-1.1 -3.1,-1.3 -4.9,-1.6 -1.4,-0.1 -3,-0.2 -4.2,0.5 -1.4,0.7 -2.2,2.1 -3.2,3.4 -1,1.4 -1.8,2.7 -2.4,4.3 -0.6,1.6 -1.3,3.5 -1,5 0.3,1 1.9,1.2 2.6,2.1 0.9,1.3 1.2,2.8 2.1,4.2 0.8,1.2 1.6,3.1 2.8,3.2 2,0.2 4.5,-1.1 6.5,-2.3 1.2,-0.7 2.3,-1.9 2.9,-3.2 0.4,-1 -0.4,-2.2 -0.1,-3.2 0.5,-1.8 2.2,-3.2 2.4,-4.9 0,-1 -1.3,-1.8 -1.8,-2.9"
           id="path286" />
        <circle
           cx="-4.4000001"
           cy="-210.39999"
           r="3"
           style="fill:#aa0000"
           id="circle286" />
        <circle
           cx="-4.4000001"
           cy="-210.39999"
           r="30"
           style="fill:none;stroke:#333333;stroke-width:2"
           id="circle287" />
        <circle
           cx="-4.4000001"
           cy="-210.39999"
           r="60"
           style="fill:none;stroke:#333333;stroke-width:2"
           id="circle288" />
      </g>
      <rect
         x="-5"
         y="-5"
         width="1210"
         height="610"
         style="fill:none;stroke:#000000;stroke-width:10"
         id="rect288" />
    </g>
  </g>
  <g
     class="scale"
     id="g297"
     style="filter:url(#filter433)">
    <g
       transform="translate(-53.031,-118.32)"
       id="g296">
      <rect
         x="0"
         y="0"
         width="10"
         height="1.5"
         class="black"
         id="rect290" />
      <text
         x="0"
         y="-1"
         text-anchor="middle"
         id="text290">0</text>
      <rect
         x="10"
         y="0"
         width="10"
         height="1.5"
         class="white"
         id="rect291" />
      <text
         x="10"
         y="-1"
         text-anchor="middle"
         id="text291">10</text>
      <rect
         x="20"
         y="0"
         width="10"
         height="1.5"
         class="black"
         id="rect292" />
      <text
         x="20"
         y="-1"
         text-anchor="middle"
         id="text292">20</text>
      <rect
         x="30"
         y="0"
         width="10"
         height="1.5"
         class="white"
         id="rect293" />
      <text
         x="30"
         y="-1"
         text-anchor="middle"
         id="text293">30</text>
      <rect
         x="40"
         y="0"
         width="10"
         height="1.5"
         class="black"
         id="rect294" />
      <text
         x="40"
         y="-1"
         text-anchor="middle"
         id="text294">40</text>
      <text
         x="50"
         y="-1"
         text-anchor="middle"
         id="text295">50</text>
      <rect
         x="0"
         y="0"
         width="50"
         height="1.5"
         class="frame"
         id="rect295" />
      <text
         x="51"
         y="1.85"
         id="text296">LY</text>
    </g>
  </g>
  <g
     class="overlays"
     id="g301"
     style="filter:url(#filter432)">
    <g
       class="logo"
       transform="matrix(0.45,0,0,0.45,-73.756,-137.695)"
       id="g300">
      <path
         class="ribbon"
         d="m 0.5,0 h 28 v 30 l -14,7 -14,-7 z m 0,32.5 14,7 14,-7 v 7 l -14,7 -14,-7 z"
         id="path297" />
      <path
         class="atlas-silhouette"
         d="m 14.8957,4.8675 c 0.486,-0.216 2.927,0.0932 2.101,2.5748 3.0598,-0.6662 2.0982,3.2355 1.3928,2.9308 -0.4208,0.5941 -0.3713,1.1141 -0.3713,1.1141 2.8969,-0.02462 4.4817,0.8912 4.4817,0.8912 0.2475,0.6933 4.8776,2.2778 4.8776,2.2778 l -0.0246,0.4953 c -4.1846,-1.6833 -5.0512,-1.7328 -5.0512,-1.7328 -0.0392,1.4857 -0.4326,2.2916 -1.2413,2.0635 -0.5966,-0.1685 -1.241,-0.5501 -1.3585,-0.7761 -0.5966,-0.0801 -1.2132,-0.0496 -1.2132,-0.0496 L 18.34,14.2603 h -0.2725 c -0.1695,0.8783 -0.7879,0.7252 -0.7879,0.7252 l 0.1342,1.332 -0.14,0.928 0.0527,2.2584 -0.1227,0.6479 0.1553,0.7581 0.5616,0.4149 c 0.0756,-0.6936 0.4163,-0.4139 0.6742,-0.4395 0.4607,0.3713 0.9214,0.7914 1.382,0.8458 0.2388,0.1525 0.5099,0.2988 0.6593,0.5536 l 1.573,0.27 2.0854,-0.0395 1.6605,0.0625 1.0928,0.1216 0.328,0.3412 -25.7184,-0.0246 0.9437,-0.7145 2.6096,-0.3813 1.2437,0.0496 0.6905,-0.3369 0.5872,0.3224 1.4708,-0.2846 c 0.9158,-0.3165 1.0188,-0.5577 1.1907,-1.711 0.2631,-0.7955 0.174,-1.7082 0.1751,-2.5911 0.2208,0.1255 0.2343,-0.7207 0.2336,-1.0593 -0.0014,-0.5747 0.2919,-1.3945 0.4142,-1.9786 l -0.7529,-0.7442 0.3501,-1.0503 -0.035,-1.9959 c 0.5175,-0.3969 0.3307,-0.7938 -0.07,-1.1907 l -0.7399,0.2006 0.046,3.6806 0.2632,0.3904 L 9.5775,14.14 C 9.033,13.8791 8.4758,14.8592 7.5465,14.6739 7.1413,14.3463 7.3139,14.0191 7.2075,13.6911 c 0,0 -0.1751,-0.035 -0.6302,-0.1751 L 6.8924,12.5007 7.5226,10.0496 C 7.9354,10.2565 7.7975,8.9799 8.9934,7.8786 8.7657,5.5436 9.7165,4.902 10.6743,4.6923 c 0.4551,-0.0357 0.9103,-0.138 1.3658,0 0.4777,0.3744 0.8988,0.8052 1.1907,1.3658 0.2402,-0.069 0.2219,-0.2236 0.2943,-0.3037 0,0 -0.6999,-0.7175 -0.7747,-0.8184 -0.0679,-0.0919 0.0378,-0.0444 0.0378,-0.0444 0.251,0.2322 0.8305,0.7685 0.8475,0.7293 0.1314,-0.3023 0.2482,-1.0455 0.2957,-1.3834 l 0.5602,0.07 0.2101,0.2801 M 13.794,15.6445 c 0.275,-0.0595 0.5304,-0.0928 1.266,-0.0817 l 0.004,2.0606 c -0.3984,0.0232 -0.1151,1.6415 -0.2852,3.0887 l -0.2422,0.9211 c -0.3665,0.0947 -1.0283,0.1605 -1.5931,-0.2127 l -0.0207,-1.9324 c 0.4388,0.1206 0.182,-1.8946 0.3233,-2.8259 z"
         id="path298" />
      <path
         class="atlas-highlights"
         d="M 17.018,6.321 C 16.4196,5.8677 15.9775,6.0887 15.8711,5.7612 c 0,0 -0.0656,-0.7715 -0.521,-0.9115 l 0.8774,0.177 0.5393,0.4264 z m -0.6817,1.3336 -0.0485,-0.1859 -0.2091,-0.384 0.2139,-0.5661 0.4709,0.0068 c 0.1058,0.0849 0.1827,0.1996 0.2505,0.3058 l 0.0103,0.1584 H 16.7971 L 16.7592,6.7624 16.5093,6.7473 16.5258,7.264 c 0,0 0.4931,0.0615 0.5006,-0.0218 0.0076,-0.0833 -0.0192,0.4519 -0.0192,0.4519 z m 1.798,-0.1831 c 0.7419,-0.046 0.8877,0.802 0.9954,1.707 -0.1683,0.1841 -0.3576,0.2523 -0.6062,-0.0055 0.081,0.1783 0.3307,0.8289 -0.106,0.6815 -0.6643,-0.7062 -0.3669,-0.2863 -0.4543,0.0303 -0.2579,0.0727 -0.4842,0.2642 -0.4846,0.6966 l -0.5149,0.0151 c 0.2595,-0.471 0.535,-1.0694 0.7572,-1.242 L 17.2817,8.673 17.206,9.8543 16.7214,9.8846 C 16.2418,9.576 15.7622,9.2061 15.2827,9.3243 l 0.1212,-0.5906 c 0.1657,0.2866 0.4667,0.2989 1.0753,0.2634 0.6008,-0.1551 0.566,-0.6931 0.5276,-1.1791 0.2904,-0.1094 0.4936,0.0862 0.7332,0.1547 0.241,0.1458 0.2321,0.6059 0.3597,0.8935 0.5028,-0.4515 0.2469,-0.9239 0.0348,-1.395 z M 14.5561,8.1489 14.128,7.1604 13.0943,6.3714 c 0,0 -1.0677,-1.2873 -1.098,-1.3024 C 11.966,5.0539 11.4965,4.9251 11.4965,4.9251 l 0.3105,0.4543 0.1969,0.1742 -0.4468,0.3786 0.7648,0.0606 0.3105,0.0757 0.3105,0.4846 0.0379,0.6966 -0.4543,0.8254 0.371,0.3862 0.2953,-0.3407 0.106,-0.8254 0.7724,0.4846 0.0984,0.3938 z m -0.5201,-2.862 0.5952,0.0293 c -0.0074,-0.0807 0.0077,-0.376 0.0077,-0.376 l 0.1894,-0.212 C 14.617,4.5612 14.4079,4.3705 14.1771,4.4177 c 0.1239,0.3385 0.1468,0.5699 -0.141,0.8691 z m 7.8048,7.299 5.5269,2.2713 -0.0069,0.1267 -5.466,-2.0078 c -0.1391,-0.2108 -0.0911,-0.2969 -0.054,-0.3902 z"
         id="path299" />
      <path
         class="text"
         d="m 3,24.5 c -0.8544857,0.0068 -1.5216627,0.312179 -1.7294313,1.032922 -0.2631783,1.189068 0.8961304,1.574093 1.7211285,1.765719 0.9101434,0.188076 1.2439235,0.55857 1.1891379,0.905 -0.2034529,1.018617 -1.0175079,0.874647 -2.9862211,0.623936 L 1.160788,29.353109 C 3.7600817,30.120711 4.8530832,29.08816 4.8767283,28.299891 4.9587073,27.817508 4.7754658,27.088196 3.1030158,26.721138 2.7005551,26.616822 1.9083664,26.516319 1.9443214,25.798611 2.1583038,24.752146 3.5626605,24.897051 4.4563633,25.273694 L 4.6814599,24.784753 C 4.0929616,24.599133 3.5126917,24.495894 3,24.5 Z m 5.0625225,0.07165 c -0.090908,7.87e-4 -0.1808864,0.01113 -0.3084319,0.03289 -0.6987093,1.299073 -1.8954736,3.988593 -2.2279034,4.843577 l 0.6559171,0.0098 c 0.3431736,-0.610111 0.5484814,-1.179065 0.747247,-1.474508 0.9499041,0.0091 1.7110858,-0.008 2.2626521,-0.01937 0.2736762,0.621009 0.5630272,1.212333 0.7115762,1.508332 l 0.7214164,-0.0011 c -0.57163,-1.4591 -2.0130918,-4.275964 -2.2478918,-4.87537 -0.1315983,-0.01637 -0.2236749,-0.02508 -0.3145817,-0.02429 z m 17.0356975,0.0067 c -0.09091,7.88e-4 -0.180886,0.01082 -0.308432,0.0326 -0.69871,1.299074 -1.895473,3.988593 -2.227903,4.843576 l 0.655918,0.0098 c 0.343172,-0.61011 0.54848,-1.179062 0.747246,-1.474506 0.949904,0.0091 1.711085,-0.008 2.262651,-0.01937 0.273677,0.621009 0.563028,1.212641 0.711578,1.508638 l 0.721415,-0.0016 c -0.571629,-1.45898 -2.0134,-4.275537 -2.248199,-4.874941 -0.131599,-0.01637 -0.223366,-0.02507 -0.314274,-0.0243 z m -13.422159,0.03534 c -0.02395,1.158498 -0.03509,3.765208 -0.03013,4.845113 l 0.793374,0.0067 c 0.01233,-0.745714 0.0058,-1.379695 0.01445,-1.979435 0.385605,-0.0073 0.66569,-0.0048 1.142704,0.0037 0.308469,0.571307 1.104051,1.670621 1.302302,1.95668 l 0.862256,0.0052 c -0.539293,-0.83388 -1.249097,-1.72349 -1.533244,-2.084623 0.525194,-0.274083 1.189343,-0.417369 1.143935,-1.377947 -0.01016,-1.719655 -1.887108,-1.278459 -3.695645,-1.375489 z m 6.043169,0.01753 c -0.354508,0.0027 -0.633041,0.013 -0.795217,0.0098 -0.01547,1.26813 -0.0067,3.776161 -0.02122,4.848495 l 0.666064,-0.0052 c 0.01018,-0.664779 0.0018,-3.609357 0.0067,-3.899829 0.442953,0.535982 2.794327,3.500833 3.112299,3.906904 0.199126,-0.01516 0.587916,-0.01022 0.860719,-0.0025 l -0.004,-4.80237 c -0.258513,0.01216 -0.54723,-0.03114 -0.717419,-0.03413 -0.01113,0.717447 -0.01162,3.159454 -0.0044,3.893065 -0.427542,-0.512611 -2.584711,-3.270071 -3.10369,-3.914281 z m -5.341124,0.493549 h 1.615652 c 1.080128,0.483586 0.759282,1.564862 -0.124541,1.799545 l -1.504028,-0.02275 z m -4.3109078,0.225893 0.8606543,2.059516 -1.6977573,-0.0018 z m 17.0294828,0.01821 0.866869,2.047703 -1.697757,-0.0018 z"
         id="path300" />
    </g>
  </g>
</svg>
